<?xml version="1.0" encoding="UTF-8" standalone="no"?>
<svg
   xmlns:dc="http://purl.org/dc/elements/1.1/"
   xmlns:cc="http://creativecommons.org/ns#"
   xmlns:rdf="http://www.w3.org/1999/02/22-rdf-syntax-ns#"
   xmlns:svg="http://www.w3.org/2000/svg"
   xmlns="http://www.w3.org/2000/svg"
   viewBox="0 0 1333.3333 1333.3333"
   height="1333.3333"
   width="1333.3333"
   xml:space="preserve"
   id="svg2"
   version="1.1"><metadata
     id="metadata8"><rdf:RDF><cc:Work
         rdf:about=""><dc:format>image/svg+xml</dc:format><dc:type
           rdf:resource="http://purl.org/dc/dcmitype/StillImage" /></cc:Work></rdf:RDF></metadata><defs
     id="defs6" /><g
     transform="matrix(1.3333333,0,0,-1.3333333,0,1333.3333)"
     id="g10"><g
       transform="scale(0.1)"
       id="g12"><path
         id="path14"
         style="fill:#ffffff;fill-opacity:1;fill-rule:nonzero;stroke:none"
         d="M 10000,0 H 0 V 10000 H 10000 V 0" /><path
         id="path16"
         style="fill:#3c47a4;fill-opacity:1;fill-rule:nonzero;stroke:none"
         d="m 3076.48,5370.7 c -3.65,-17.89 -8.07,-42.84 -13.23,-74.84 -5.18,-31.99 -8.67,-56.77 -10.5,-74.37 -65.1,-9.73 -123.2,-14.59 -174.3,-14.59 -49.28,0 -95.13,6.15 -137.57,18.47 -42.43,12.32 -81.37,32.55 -116.8,60.69 -35.45,28.13 -60.77,61.21 -75.98,99.24 -15.21,38.02 -22.81,80.61 -22.81,127.76 0,55.05 10.26,104.56 30.79,148.52 20.54,43.95 50.04,80.6 88.53,109.96 38.47,29.35 80.68,50.34 126.62,62.97 45.92,12.61 93.37,18.94 142.35,18.94 45.02,0 100.68,-5.79 167,-17.34 l 0.92,-38.33 c 0.6,-16.74 1.52,-35.14 2.73,-55.21 l 3.2,-52.02 c -35.6,8.51 -64.42,14.3 -86.47,17.34 -22.06,3.04 -42.51,4.56 -61.37,4.56 -41.06,0 -78.02,-8.21 -110.87,-24.63 -32.85,-16.43 -58.72,-40.32 -77.57,-71.64 -18.86,-31.34 -28.3,-66.02 -28.3,-104.03 0,-34.68 7.91,-64.42 23.73,-89.2 15.82,-24.8 37.19,-43.97 64.11,-57.5 26.93,-13.54 60.16,-20.3 99.7,-20.3 21.59,0 45.09,1.74 70.5,5.24 25.39,3.49 57.26,10.27 95.59,20.31" /><path
         id="path18"
         style="fill:#3c47a4;fill-opacity:1;fill-rule:nonzero;stroke:none"
         d="m 3435.22,5528.57 h 141.73 c -35.23,107.19 -54.52,166.25 -57.85,177.19 -20.06,-44.64 -37.08,-81.23 -51.05,-109.77 z m -353.27,-309.81 37.89,65.7 236.02,444.42 25.11,49.73 c 7.31,14.61 17.5,35.59 30.59,62.97 53.52,-0.61 92.61,-0.91 117.25,-0.91 42.88,0 82.57,0.3 119.07,0.91 l 66.58,-190.27 135.43,-365.94 26.45,-66.61 c -52.69,0.61 -84.66,0.91 -95.92,0.91 -25.58,0 -63.19,-0.3 -112.82,-0.91 -13.37,50.19 -32.65,109.2 -57.85,177.03 h -229.69 c -26.44,-53.54 -53.8,-112.55 -82.06,-177.03 -56.65,0.61 -91.36,0.91 -104.14,0.91 -23.15,0 -60.45,-0.3 -111.91,-0.91" /><path
         id="path20"
         style="fill:#3c47a4;fill-opacity:1;fill-rule:nonzero;stroke:none"
         d="m 3923.34,5218.76 c 5.79,53.53 10.37,101.75 13.73,144.64 3.35,42.89 6.25,92.62 8.68,149.2 2.45,56.58 4.28,116.28 5.49,179.09 1.22,62.82 1.84,112.77 1.84,149.89 38.02,-0.91 68.73,-1.37 92.16,-1.37 24.31,0 53.98,0.69 88.96,2.06 34.97,1.37 69.03,2.05 102.18,2.05 38.93,0 73.61,-1.52 104.02,-4.56 22.81,-2.13 43.56,-6.55 62.27,-13.24 18.71,-6.69 34.45,-14.83 47.22,-24.41 12.77,-9.58 23.42,-20.3 31.94,-32.17 8.5,-11.86 15.12,-25.77 19.84,-41.74 4.72,-15.98 7.07,-33.08 7.07,-51.34 0,-20.38 -2.59,-39.46 -7.75,-57.26 -5.17,-17.79 -13.31,-34.53 -24.42,-50.19 -11.11,-15.67 -25.09,-29.2 -41.97,-40.61 -16.88,-11.41 -40.54,-23.04 -70.96,-34.91 l 23.73,-57.94 c 6.69,-16.13 13.84,-32.56 21.44,-49.28 l 61.15,-133.69 c 2.73,-5.79 7.6,-17.19 14.6,-34.22 -50.17,0.61 -83.9,0.91 -101.22,0.91 -21.89,0 -57.76,-0.3 -107.61,-0.91 -4.88,15.81 -13.71,45.17 -26.5,88.06 -5.17,17.95 -9.59,31.78 -13.24,41.52 -7.32,21.6 -18.13,51.86 -32.44,90.81 l -47.05,129.12 c 16.42,-3.05 32.55,-4.56 48.37,-4.56 22.2,0 42.35,3.34 60.45,10.04 18.09,6.68 31.78,17.03 41.07,31.03 9.27,13.98 13.91,28.73 13.91,44.25 0,13.08 -3.5,24.56 -10.49,34.45 -7,9.88 -18.03,17.26 -33.09,22.13 -15.05,4.87 -38.26,7.3 -69.58,7.3 -10.65,0 -21.67,-0.22 -33.08,-0.69 -11.41,-0.45 -24.72,-0.84 -39.92,-1.14 -3.9,-62.36 -7.35,-138.4 -10.36,-228.13 -3,-89.75 -4.94,-177.81 -5.84,-264.19 -50.86,0.61 -83.91,0.91 -99.13,0.91 -17.67,0 -49.49,-0.3 -95.47,-0.91" /><path
         id="path22"
         style="fill:#51abe4;fill-opacity:1;fill-rule:nonzero;stroke:none"
         d="m 4701.86,5218.76 -15.52,83.95 c -3.66,19.77 -9.29,47.46 -16.9,83.05 l -74.43,340.84 -26.94,114.98 c 38.35,-0.61 69.4,-0.91 93.15,-0.91 26.79,0 57.84,0.3 93.16,0.91 8.22,-49.58 14.76,-85.93 19.64,-109.05 l 38.36,-183.88 c 7.91,-39.55 16.74,-87.76 26.48,-144.64 l 15.03,63.88 54.18,210.8 37.34,162.89 c 41.67,-0.61 76.95,-0.91 105.86,-0.91 31.32,0 66.45,0.3 105.4,0.91 l 28.83,-192.1 39.84,-244.56 17.78,67.08 c 3.34,11.55 6.83,23.26 10.48,35.13 3.65,11.86 11.25,35.43 22.81,70.72 l 55.63,175.22 25.98,88.51 c 36.77,-0.31 67.17,-0.45 91.19,-0.45 27.05,0 57.3,0.14 90.73,0.45 l -176.9,-530.2 -28.27,-92.62 c -45.64,0.61 -85.49,0.91 -119.56,0.91 -35.91,0 -75.6,-0.3 -119.11,-0.91 l -10.48,62.51 -40.08,217.64 c -2.12,13.08 -4.03,26.54 -5.69,40.38 -1.67,13.85 -4.03,35.37 -7.06,64.57 l -15.98,-70.73 c -3.96,-15.82 -8.08,-31.78 -12.33,-47.91 l -73.51,-266.46 c -45.94,0.61 -84.12,0.91 -114.55,0.91 -32.25,0 -70.43,-0.3 -114.56,-0.91" /><path
         id="path24"
         style="fill:#51abe4;fill-opacity:1;fill-rule:nonzero;stroke:none"
         d="m 5865.84,5528.57 h 141.72 c -35.22,107.19 -54.51,166.25 -57.85,177.19 -20.06,-44.64 -37.07,-81.23 -51.05,-109.77 z m -353.28,-309.81 37.9,65.7 236.02,444.42 25.11,49.73 c 7.3,14.61 17.49,35.59 30.59,62.97 53.52,-0.61 92.61,-0.91 117.25,-0.91 42.88,0 82.57,0.3 119.07,0.91 l 66.58,-190.27 135.42,-365.94 26.45,-66.61 c -52.68,0.61 -84.65,0.91 -95.91,0.91 -25.58,0 -63.19,-0.3 -112.83,-0.91 -13.36,50.19 -32.64,109.2 -57.85,177.03 h -229.68 c -26.44,-53.54 -53.81,-112.55 -82.07,-177.03 -56.64,0.61 -91.35,0.91 -104.13,0.91 -23.15,0 -60.45,-0.3 -111.92,-0.91" /><path
         id="path26"
         style="fill:#51abe4;fill-opacity:1;fill-rule:nonzero;stroke:none"
         d="m 6349.4,5228.34 c -3.97,64.79 -8.52,116.65 -13.7,155.59 34.13,-15.21 64.54,-25.78 91.2,-31.71 26.67,-5.93 50.05,-8.9 70.17,-8.9 26.51,0 47.62,3.88 63.31,11.64 15.68,7.76 23.54,19.23 23.54,34.45 0,5.16 -0.76,10.11 -2.29,14.83 -1.52,4.71 -4.42,10.03 -8.67,15.97 -4.28,5.92 -10.38,12.39 -18.3,19.39 l -85.97,74.83 c -20.11,17.03 -34.13,29.35 -42.06,36.96 -16.15,15.51 -28.73,29.96 -37.71,43.35 -9.01,13.38 -15.56,26.99 -19.68,40.83 -4.11,13.84 -6.16,28.52 -6.16,44.03 0,18.55 3.27,36.73 9.81,54.53 6.54,17.79 16.35,34.45 29.43,49.96 13.07,15.52 30.41,28.9 52.02,40.15 21.59,11.25 44.71,18.94 69.35,23.05 24.64,4.1 50.03,6.16 76.21,6.16 51.39,0 107.38,-5.94 167.89,-17.8 0.93,-20.99 1.98,-40.23 3.21,-57.72 1.21,-17.5 4.1,-48.14 8.66,-91.94 -27.99,11.25 -53.54,19.09 -76.64,23.5 -23.12,4.4 -43.05,6.61 -59.78,6.61 -23.73,0 -43.42,-4.41 -59.1,-13.23 -15.67,-8.83 -23.49,-19.77 -23.49,-32.85 0,-6.09 1.22,-12.02 3.64,-17.8 2.45,-5.78 7,-12.55 13.7,-20.3 6.69,-7.76 15.51,-16.27 26.46,-25.55 10.96,-9.29 28.14,-23.05 51.57,-41.3 l 32.85,-26 c 9.73,-7.91 20.22,-17.5 31.49,-28.75 11.23,-11.25 20.98,-22.35 29.19,-33.31 8.21,-10.95 14.52,-20.99 18.94,-30.11 4.4,-9.12 7.67,-18.33 9.81,-27.6 2.12,-9.29 3.19,-19.25 3.19,-29.89 0,-27.38 -6.54,-53.47 -19.62,-78.25 -13.08,-24.8 -31.64,-45.17 -55.67,-61.15 -24.02,-15.97 -50.41,-27.15 -79.17,-33.54 -28.74,-6.38 -59.08,-9.57 -91.02,-9.57 -49.29,0 -111.49,7.15 -186.61,21.44" /><path
         id="path28"
         style="fill:#51abe4;fill-opacity:1;fill-rule:nonzero;stroke:none"
         d="m 6873.21,5218.76 17.65,249.13 8.16,181.59 2.25,80.77 c 0.62,23.42 0.92,45.93 0.92,67.53 l -0.47,43.8 c 47.82,-0.61 83.6,-0.91 107.35,-0.91 18.58,0 50.85,0.3 96.83,0.91 -7.2,-87.31 -11.86,-164.42 -13.95,-231.33 h 248.35 c 1.5,24.99 2.94,58.75 4.3,101.26 1.36,42.53 2.04,71.56 2.04,87.1 0,8.23 -0.31,22.55 -0.9,42.97 l 107.99,-0.91 c 11.23,0 43.13,0.3 95.68,0.91 -10.86,-156.35 -17.8,-272.63 -20.82,-348.83 -3.02,-76.19 -4.53,-167.53 -4.53,-273.99 l -99.57,0.91 c -14.91,0 -50.55,-0.3 -106.86,-0.91 7.61,72.39 12.77,156.65 15.51,252.78 h -248.56 l -7.66,-252.78 -105.96,0.91 c -13.41,0 -45.99,-0.3 -97.75,-0.91" /><path
         id="path30"
         style="fill:#204560;fill-opacity:1;fill-rule:nonzero;stroke:none"
         d="m 2525.29,5046.63 h 104.38 l 60.84,-157.17 65.08,157.17 h 92.53 L 2728.4,4797.72 v -182.27 h -94.76 v 182.27 l -108.35,248.91" /><path
         id="path32"
         style="fill:#204560;fill-opacity:1;fill-rule:nonzero;stroke:none"
         d="m 3061.34,4831.2 c 0,58.12 -4.52,96.82 -13.58,116.08 -9.05,19.28 -23.48,28.91 -43.27,28.91 -19.59,0 -33.91,-9.68 -42.96,-29.06 -9.06,-19.38 -13.59,-58.02 -13.59,-115.93 0,-56.86 4.47,-95.29 13.43,-115.29 8.95,-20.01 23.32,-30.01 43.12,-30.01 19.59,0 33.95,9.58 43.11,28.74 9.17,19.16 13.74,58.02 13.74,116.56 z m 99.82,0 c 0,-148.26 -52.11,-222.38 -156.36,-222.38 -51.8,0 -90.87,18.9 -117.19,56.7 -26.32,37.79 -39.49,93.02 -39.49,165.68 0,148.04 52.13,222.07 156.37,222.07 50.96,0 89.81,-18.53 116.55,-55.6 26.75,-37.07 40.12,-92.55 40.12,-166.47" /><path
         id="path34"
         style="fill:#204560;fill-opacity:1;fill-rule:nonzero;stroke:none"
         d="m 3227.19,5046.63 h 94.76 v -246.39 c 0,-34.75 1.58,-58.96 4.73,-72.65 3.16,-13.69 9.74,-24.06 19.75,-31.12 10,-7.06 22.27,-10.57 36.8,-10.57 15.8,0 28.32,3.89 37.59,11.68 9.26,7.79 14.95,18.11 17.05,30.95 2.11,12.85 3.17,36.75 3.17,71.71 v 246.39 h 79.28 v -242.6 c 0,-48.43 -2.8,-84.54 -8.37,-108.34 -5.58,-23.8 -19.79,-44.23 -42.64,-61.28 -22.85,-17.06 -54.28,-25.59 -94.3,-25.59 -37.49,0 -66.96,6.27 -88.44,18.8 -21.48,12.52 -36.75,30.11 -45.81,52.75 -9.05,22.63 -13.57,62.59 -13.57,119.87 v 246.39" /><path
         id="path36"
         style="fill:#204560;fill-opacity:1;fill-rule:nonzero;stroke:none"
         d="m 3696.59,4976.83 v -120.99 h 41.7 c 37.06,0 55.6,20.73 55.6,62.23 0,14.32 -2.75,26.06 -8.22,35.22 -5.47,9.16 -11.84,15.37 -19.11,18.64 -7.27,3.27 -17.96,4.9 -32.07,4.9 z m -94.76,69.8 h 135.5 c 26.33,0 46.49,-1.21 60.5,-3.63 14.01,-2.43 28.16,-8.95 42.49,-19.58 14.31,-10.64 25.52,-25.17 33.64,-43.6 8.11,-18.42 12.15,-39.12 12.15,-62.07 0,-53.91 -20.2,-91.81 -60.64,-113.72 l 79.28,-188.58 h -103.14 l -57.68,170.58 h -47.34 v -170.58 h -94.76 v 431.18" /><path
         id="path38"
         style="fill:#204560;fill-opacity:1;fill-rule:nonzero;stroke:none"
         d="m 4338.79,4952.82 -78.34,-30.01 c -11.17,35.58 -31.59,53.38 -61.29,53.38 -13.89,0 -24.9,-3.95 -33.01,-11.85 -8.1,-7.89 -12.16,-17.11 -12.16,-27.63 0,-12.22 4.79,-21.96 14.38,-29.23 9.58,-7.25 29.64,-16.79 60.18,-28.58 27.79,-10.32 49.64,-20.53 65.53,-30.64 15.91,-10.11 28.75,-23.85 38.54,-41.23 9.8,-17.36 14.7,-37.54 14.7,-60.48 0,-40.24 -13.85,-73.24 -41.55,-99.04 -27.69,-25.8 -64.81,-38.69 -111.35,-38.69 -78.12,0 -128.04,39.48 -149.72,118.45 l 82.76,23.7 c 10.1,-43.39 33.16,-65.07 69.18,-65.07 16.42,0 29.74,4.26 39.96,12.78 10.21,8.54 15.32,19.74 15.32,33.65 0,10.53 -3.58,19.95 -10.75,28.27 -7.16,8.32 -23.58,17.11 -49.27,26.37 -33.07,11.8 -57.7,22.49 -73.92,32.07 -16.22,9.58 -29.59,23.27 -40.11,41.07 -10.54,17.79 -15.8,38.06 -15.8,60.8 0,38.75 12.48,70.5 37.43,95.24 24.96,24.74 57.97,37.12 99.04,37.12 74.97,0 121.71,-33.49 140.25,-100.45" /><path
         id="path40"
         style="fill:#204560;fill-opacity:1;fill-rule:nonzero;stroke:none"
         d="m 4405.76,5046.63 h 94.76 v -350.31 h 138.99 v -80.87 h -233.75 v 431.18" /><path
         id="path42"
         style="fill:#204560;fill-opacity:1;fill-rule:nonzero;stroke:none"
         d="m 4880.84,4831.2 c 0,58.12 -4.53,96.82 -13.58,116.08 -9.05,19.28 -23.48,28.91 -43.28,28.91 -19.58,0 -33.91,-9.68 -42.96,-29.06 -9.06,-19.38 -13.58,-58.02 -13.58,-115.93 0,-56.86 4.47,-95.29 13.42,-115.29 8.96,-20.01 23.33,-30.01 43.12,-30.01 19.59,0 33.96,9.58 43.12,28.74 9.16,19.16 13.74,58.02 13.74,116.56 z m 99.82,0 c 0,-148.26 -52.11,-222.38 -156.36,-222.38 -51.81,0 -90.88,18.9 -117.2,56.7 -26.32,37.79 -39.48,93.02 -39.48,165.68 0,148.04 52.13,222.07 156.36,222.07 50.97,0 89.81,-18.53 116.56,-55.6 26.75,-37.07 40.12,-92.55 40.12,-166.47" /><path
         id="path44"
         style="fill:#204560;fill-opacity:1;fill-rule:nonzero;stroke:none"
         d="m 5197.99,4845.41 h 149.72 v -229.96 h -40.11 l -12.32,49.28 c -23.17,-37.27 -57.92,-55.91 -104.24,-55.91 -49.08,0 -87.97,19.31 -116.72,57.96 -28.75,38.64 -43.12,90.61 -43.12,155.89 0,70.96 14.16,127.15 42.48,168.52 28.32,41.38 70.18,62.08 125.57,62.08 88.23,0 137.73,-49.29 148.46,-147.84 l -85.29,-13.89 c -5.89,56.43 -26.32,84.65 -61.27,84.65 -21.27,0 -38.28,-10.43 -51.02,-31.27 -12.74,-20.85 -19.11,-60.33 -19.11,-118.45 0,-51.61 6.21,-87.93 18.64,-108.99 12.41,-21.06 30.64,-31.58 54.64,-31.58 38.54,0 57.91,28.53 58.12,85.6 h -64.43 v 73.91" /><path
         id="path46"
         style="fill:#204560;fill-opacity:1;fill-rule:nonzero;stroke:none"
         d="m 5594.94,4778.44 -43.57,176.66 -41.8,-176.66 z m -82.33,268.19 h 95.4 l 123.19,-431.18 h -96.91 l -21.51,89.08 h -121.46 l -21.15,-89.08 h -87.07 l 129.51,431.18" /><path
         id="path48"
         style="fill:#204560;fill-opacity:1;fill-rule:nonzero;stroke:none"
         d="m 5763.74,5046.63 h 105.19 l 110.87,-267.87 v 267.87 h 73.28 v -431.18 h -84.65 l -131.4,312.09 v -312.09 h -73.29 v 431.18" /><path
         id="path50"
         style="fill:#204560;fill-opacity:1;fill-rule:nonzero;stroke:none"
         d="m 6251.47,5046.63 h 94.76 v -174.05 h 103.61 v 174.05 h 94.76 v -431.18 h -94.76 v 176.26 h -103.61 v -176.26 h -94.76 v 431.18" /><path
         id="path52"
         style="fill:#204560;fill-opacity:1;fill-rule:nonzero;stroke:none"
         d="m 6626.1,5046.63 h 262.18 v -73.92 H 6720.86 V 4872.58 H 6851 v -73.92 h -130.14 v -106.13 h 167.42 v -77.08 H 6626.1 v 431.18" /><path
         id="path54"
         style="fill:#204560;fill-opacity:1;fill-rule:nonzero;stroke:none"
         d="m 7029.48,4976.83 v -120.99 h 41.71 c 37.06,0 55.58,20.73 55.58,62.23 0,14.32 -2.73,26.06 -8.2,35.22 -5.49,9.16 -11.84,15.37 -19.11,18.64 -7.27,3.27 -17.95,4.9 -32.07,4.9 z m -94.76,69.8 h 135.51 c 26.32,0 46.5,-1.21 60.51,-3.63 13.98,-2.43 28.16,-8.95 42.46,-19.58 14.33,-10.64 25.54,-25.17 33.66,-43.6 8.1,-18.42 12.16,-39.12 12.16,-62.07 0,-53.91 -20.22,-91.81 -60.65,-113.72 l 79.28,-188.58 h -103.14 l -57.67,170.58 h -47.36 v -170.58 h -94.76 v 431.18" /><path
         id="path56"
         style="fill:#204560;fill-opacity:1;fill-rule:nonzero;stroke:none"
         d="m 7287.24,5046.63 h 262.17 v -73.92 h -167.42 v -100.13 h 130.15 v -73.92 h -130.15 v -106.13 h 167.42 v -77.08 h -262.17 v 431.18" /><path
         id="path58"
         style="fill:#51abe4;fill-opacity:1;fill-rule:nonzero;stroke:none"
         d="M 7761.74,5937.72 H 2312.97 v 202.38 h 5448.77 v -202.38" /><path
         id="path60"
         style="fill:#51abe4;fill-opacity:1;fill-rule:nonzero;stroke:none"
         d="M 7761.74,4279.75 H 2312.97 v 202.38 h 5448.77 v -202.38" /><path
         id="path62"
         style="fill:#3c47a4;fill-opacity:1;fill-rule:nonzero;stroke:none"
         d="m 6572.22,7557.39 h -539.55 c -63.54,0 -85.1,84.62 -29.36,115.11 134.47,73.56 303.76,177.47 439.04,297.14 267.96,237.05 453.47,-51.53 453.47,-51.53 0.86,-7.16 1.52,-14.2 1.99,-21.12 12.61,-184.93 -140.22,-339.6 -325.59,-339.6 z m -879.61,3.89 c -96.33,-114.39 -239.37,-179.1 -388.91,-179.1 H 5037.35 4771 c -149.54,0 -292.57,64.71 -388.9,179.1 -62.89,74.68 -80.4,130.09 -80.4,130.09 H 5037.35 5773 c 0,0 -17.5,-55.41 -80.39,-130.09 z m -1650.57,-3.89 h -539.55 c -185.37,0 -338.2,154.67 -325.6,339.6 0.48,6.92 1.13,13.96 1.99,21.12 0,0 185.52,288.58 453.48,51.53 135.28,-119.67 304.56,-223.58 439.04,-297.14 55.74,-30.49 34.17,-115.11 -29.36,-115.11 z m -4.68,1492.09 c 31.9,34.8 73.83,58.66 120.12,67.93 353.19,70.8 879.87,74.78 879.87,74.78 0,0 526.69,-3.98 879.88,-74.78 46.29,-9.27 88.21,-33.13 120.12,-67.93 83.21,-90.77 166.99,-295.67 328.4,-598.77 H 5037.35 3708.96 c 161.41,303.1 245.19,508 328.4,598.77 z m 2906.68,-850.2 c -22.43,24.59 -49.24,44.83 -78.59,60.53 l -281.38,150.55 c 19.91,33.94 38.52,60.06 45.44,53.14 0.17,-0.17 0.35,-0.34 0.53,-0.52 53.25,-52.9 131.69,-73.14 203.66,-51.83 106.43,31.52 210.39,115.16 148.02,200.2 -48.63,66.32 -142.24,65.21 -222.5,48.08 -82.67,-17.64 -155.85,-65.3 -207.03,-132.57 L 6502.83,8462 c -34.9,66.8 -138.1,420.09 -410.66,700.15 -30.93,31.78 -70.58,53.78 -114,62.82 -100.67,20.96 -412.16,86.85 -940.82,86.85 -528.65,0 -840.15,-65.89 -940.81,-86.85 -43.42,-9.04 -83.08,-31.04 -114.01,-62.82 C 3709.98,8882.09 3606.78,8528.8 3571.88,8462 l -49.36,64.86 c -51.18,67.27 -124.36,114.93 -207.03,132.57 -80.27,17.13 -173.87,18.24 -222.51,-48.08 -62.36,-85.04 41.59,-168.68 148.02,-200.2 71.98,-21.31 150.41,-1.07 203.67,51.83 0.18,0.18 0.35,0.35 0.53,0.52 6.92,6.92 25.53,-19.2 45.44,-53.14 l -281.39,-150.55 c -29.34,-15.7 -56.15,-35.94 -78.58,-60.53 -132.65,-145.45 -206.86,-335.71 -206.86,-533.85 v -513.86 h 2113.54 2113.54 v 513.86 c 0,198.14 -74.21,388.4 -206.85,533.85" /><path
         id="path64"
         style="fill:#ffffff;fill-opacity:1;fill-rule:nonzero;stroke:none"
         d="m 7488.63,6637.23 v 161.99 c 0,90.22 -35.2,172.02 -92.29,233.12 12.9,33.84 20.27,70.4 20.27,108.76 0,168.92 -136.94,305.86 -305.86,305.86 -45.49,0 -88.5,-10.19 -127.29,-28 -98.03,242.27 -335.37,413.25 -612.78,413.25 -278.96,0 -517.37,-172.9 -614.39,-417.3 -55.77,52.88 -129.57,86.64 -211.31,91.38 0,0.34 0.05,0.66 0.05,0.99 0,196.46 -159.26,355.72 -355.72,355.72 -187.99,0 -341.53,-145.93 -354.45,-330.64 -76.67,85.96 -188.21,140.14 -312.46,140.14 -231.2,0 -418.63,-187.43 -418.63,-418.63 0,-1.78 0.11,-3.53 0.13,-5.31 -17.4,3.42 -35.36,5.31 -53.76,5.31 -59.57,0 -114.63,-18.9 -159.88,-50.8 -2.89,197.69 -163.82,357.12 -362.2,357.12 -124.88,0 -234.97,-63.17 -300.16,-159.27 -46.77,29.01 -101.74,46.04 -160.82,46.04 -168.92,0 -305.86,-136.94 -305.86,-305.86 0,-57.21 15.99,-110.55 43.33,-156.35 -130.93,-30.07 -228.67,-147.07 -228.67,-287.12 v -60.91 c -94.09,-5.32 -168.8,-83.07 -168.8,-178.49 0,-95.42 74.71,-173.17 168.8,-178.49 v -0.51 h 4912.75 c 98.86,0 179,80.14 179,179 0,98.86 -80.14,179 -179,179" /><path
         id="path66"
         style="fill:#51abe4;fill-opacity:1;fill-rule:nonzero;stroke:none"
         d="m 2586.29,6326.13 h 4902.35 c 72.83,0 132.1,59.26 132.1,132.1 0,72.84 -59.27,132.1 -132.1,132.1 h -46.9 v 208.89 c 0,74.71 -28.3,146.13 -79.66,201.1 l -19.98,21.38 10.42,27.34 c 11.41,29.94 17.19,60.91 17.19,92.06 0,142.79 -116.17,258.97 -258.96,258.97 -37.18,0 -73.43,-7.98 -107.72,-23.73 l -44.62,-20.48 -18.42,45.51 c -94.38,233.23 -317.85,383.94 -569.31,383.94 -253.26,0 -477.3,-152.18 -570.8,-387.71 l -25.57,-64.41 -50.29,47.69 c -49.3,46.75 -113.85,74.66 -181.75,78.6 l -45.33,2.62 1.19,46.68 c -0.81,169.61 -139.03,307.32 -308.82,307.32 -161.27,0 -296.41,-126.07 -307.66,-287.02 l -7.76,-110.95 -74.03,83.01 c -70.54,79.09 -171.67,124.46 -277.46,124.46 -204.97,0 -371.73,-166.76 -371.73,-371.73 l 0.74,-62.39 -56.52,11.06 c -63.84,12.49 -126.37,-1.66 -177.61,-37.8 l -72.62,-51.2 -1.3,88.84 c -2.51,171.44 -143.95,310.9 -315.3,310.9 -104.74,0 -202.45,-51.84 -261.35,-138.69 l -25.27,-37.26 -38.26,23.73 c -41.13,25.52 -88.19,39.01 -136.1,39.01 -142.79,0 -258.97,-116.18 -258.97,-258.97 0,-46.34 12.69,-92.09 36.7,-132.31 l 33.02,-55.32 -62.79,-14.42 c -113.2,-26.01 -192.26,-125.28 -192.26,-241.42 V 6592.4 l -44.25,-2.51 c -69.85,-3.94 -124.56,-61.77 -124.56,-131.66 0,-69.89 54.71,-127.72 124.56,-131.66 z m 4902.35,-93.8 H 2528.99 v 7.5 c -97.55,25.39 -168.82,114.04 -168.82,218.4 0,104.37 71.27,193.02 168.82,218.4 v 21 c 0,140.43 83.82,262.97 209.71,315.16 -16.05,40.84 -24.38,84.36 -24.38,128.31 0,194.52 158.24,352.76 352.76,352.76 51.08,0 101.42,-11.2 147.69,-32.66 77.42,92.03 191.69,145.88 313.29,145.88 197.16,0 363.81,-142.32 401.28,-329.65 40.89,16.49 84.78,24.44 129.86,23.21 23.53,234.82 222.28,418.76 463.2,418.76 102.52,0 201.53,-34.01 282,-95.27 50.46,165.8 205.25,285.77 384.91,285.77 208.16,0 379.93,-158.79 400.55,-361.6 53.1,-9.07 103.7,-29.27 148.34,-59.13 119.53,238.82 361.49,389.94 632.48,389.94 274.48,0 520.02,-155.77 637.69,-400.55 33.18,10.16 67.45,15.3 102.38,15.3 194.52,0 352.76,-158.24 352.76,-352.76 0,-33.18 -4.76,-66.12 -14.19,-98.27 55.79,-69.08 86.21,-154.54 86.21,-243.61 v -119.98 c 102.15,-21.65 179,-112.52 179,-221.01 0,-124.56 -101.33,-225.9 -225.89,-225.9" /><path
         id="path68"
         style="fill:#ed1b26;fill-opacity:1;fill-rule:nonzero;stroke:none"
         d="m 696.195,1325.8 c -1.965,-9.62 -4.34,-23.05 -7.121,-40.27 -2.789,-17.22 -4.668,-30.56 -5.652,-40.03 -35.031,-5.24 -66.301,-7.85 -93.809,-7.85 -26.519,0 -51.195,3.31 -74.035,9.94 -22.84,6.63 -43.797,17.52 -62.863,32.66 -19.078,15.14 -32.707,32.95 -40.891,53.41 -8.187,20.46 -12.281,43.39 -12.281,68.76 0,29.63 5.527,56.28 16.574,79.94 11.055,23.65 26.93,43.38 47.645,59.18 20.707,15.8 43.426,27.09 68.144,33.89 24.719,6.79 50.258,10.19 76.617,10.19 24.231,0 54.188,-3.12 89.879,-9.33 l 0.493,-20.63 c 0.328,-9.01 0.82,-18.91 1.472,-29.72 l 1.723,-27.99 c -19.16,4.58 -34.668,7.69 -46.535,9.33 -11.875,1.64 -22.883,2.46 -33.032,2.46 -22.101,0 -41.992,-4.42 -59.671,-13.26 -17.68,-8.84 -31.602,-21.7 -41.75,-38.56 -10.153,-16.86 -15.227,-35.53 -15.227,-55.99 0,-18.66 4.258,-34.67 12.77,-48.01 8.515,-13.34 20.015,-23.66 34.503,-30.94 14.493,-7.29 32.375,-10.93 53.661,-10.93 11.621,0 24.265,0.94 37.937,2.83 13.668,1.87 30.824,5.52 51.449,10.92" /><path
         id="path70"
         style="fill:#ed1b26;fill-opacity:1;fill-rule:nonzero;stroke:none"
         d="m 889.27,1410.77 h 76.277 c -18.957,57.69 -29.336,89.48 -31.137,95.36 -10.793,-24.02 -19.953,-43.71 -27.472,-59.07 z m -190.129,-166.74 20.39,35.36 127.032,239.19 13.511,26.76 c 3.934,7.86 9.418,19.16 16.461,33.89 28.809,-0.32 49.844,-0.49 63.106,-0.49 23.078,0 44.441,0.17 64.089,0.49 l 35.83,-102.4 72.89,-196.95 14.23,-35.85 c -28.36,0.33 -45.56,0.49 -51.62,0.49 -13.77,0 -34.01,-0.16 -60.72,-0.49 -7.2,27.01 -17.574,58.77 -31.137,95.28 H 859.582 c -14.23,-28.82 -28.957,-60.57 -44.164,-95.28 -30.484,0.33 -49.168,0.49 -56.051,0.49 -12.453,0 -32.531,-0.16 -60.226,-0.49" /><path
         id="path72"
         style="fill:#ed1b26;fill-opacity:1;fill-rule:nonzero;stroke:none"
         d="m 1151.98,1244.03 c 3.12,28.81 5.58,54.76 7.38,77.84 1.81,23.09 3.37,49.86 4.68,80.31 1.31,30.45 2.3,62.57 2.95,96.38 0.66,33.81 0.99,60.7 0.99,80.67 20.46,-0.49 36.99,-0.73 49.6,-0.73 13.09,0 29.05,0.37 47.88,1.1 18.82,0.74 37.16,1.11 55,1.11 20.95,0 39.61,-0.82 55.98,-2.46 12.28,-1.14 23.44,-3.52 33.51,-7.12 10.07,-3.6 18.54,-7.98 25.42,-13.14 6.87,-5.16 12.6,-10.92 17.19,-17.31 4.57,-6.38 8.13,-13.87 10.67,-22.47 2.54,-8.6 3.81,-17.8 3.81,-27.63 0,-10.97 -1.39,-21.24 -4.17,-30.82 -2.79,-9.57 -7.17,-18.58 -13.14,-27.01 -5.98,-8.43 -13.51,-15.72 -22.59,-21.86 -9.09,-6.14 -21.82,-12.4 -38.19,-18.78 l 12.77,-31.19 c 3.6,-8.68 7.45,-17.52 11.54,-26.52 l 32.91,-71.95 c 1.47,-3.12 4.09,-9.25 7.86,-18.42 -27,0.33 -45.16,0.49 -54.48,0.49 -11.78,0 -31.09,-0.16 -57.92,-0.49 -2.62,8.51 -7.37,24.31 -14.26,47.39 -2.78,9.66 -5.16,17.11 -7.13,22.35 -3.93,11.62 -9.75,27.91 -17.45,48.87 l -25.33,69.49 c 8.84,-1.63 17.52,-2.45 26.04,-2.45 11.94,0 22.79,1.8 32.53,5.4 9.74,3.6 17.11,9.17 22.1,16.7 5,7.53 7.49,15.47 7.49,23.82 0,7.04 -1.88,13.22 -5.65,18.54 -3.76,5.32 -9.7,9.29 -17.8,11.91 -8.11,2.62 -20.59,3.93 -37.45,3.93 -5.73,0 -11.67,-0.12 -17.81,-0.37 -6.14,-0.24 -13.3,-0.45 -21.48,-0.61 -2.1,-33.56 -3.96,-74.49 -5.57,-122.78 -1.62,-48.3 -2.66,-95.7 -3.15,-142.19 -27.37,0.33 -45.16,0.49 -53.35,0.49 -9.51,0 -26.64,-0.16 -51.38,-0.49" /><path
         id="path74"
         style="fill:#51abe4;fill-opacity:1;fill-rule:nonzero;stroke:none"
         d="m 1570.98,1244.03 -8.36,45.18 c -1.97,10.64 -4.99,25.54 -9.09,44.7 l -40.06,183.44 -14.5,61.88 c 20.64,-0.32 37.35,-0.49 50.13,-0.49 14.42,0 31.13,0.17 50.14,0.49 4.43,-26.68 7.95,-46.25 10.57,-58.69 l 20.65,-98.96 c 4.26,-21.29 9.01,-47.24 14.25,-77.85 l 8.09,34.38 29.16,113.45 20.09,87.67 c 22.43,-0.32 41.42,-0.49 56.98,-0.49 16.86,0 35.77,0.17 56.73,0.49 l 15.52,-103.38 21.43,-131.63 9.57,36.1 c 1.8,6.22 3.68,12.52 5.65,18.91 1.96,6.38 6.05,19.07 12.27,38.06 l 29.94,94.3 13.99,47.64 c 19.78,-0.16 36.15,-0.24 49.07,-0.24 14.56,0 30.84,0.08 48.83,0.24 l -95.21,-285.35 -15.21,-49.85 c -24.56,0.33 -46.01,0.49 -64.35,0.49 -19.32,0 -40.69,-0.16 -64.1,-0.49 l -5.64,33.64 -21.58,117.14 c -1.14,7.04 -2.16,14.28 -3.06,21.73 -0.9,7.45 -2.16,19.04 -3.8,34.75 l -8.6,-38.06 c -2.13,-8.52 -4.34,-17.11 -6.63,-25.79 l -39.57,-143.41 c -24.72,0.33 -45.27,0.49 -61.64,0.49 -17.36,0 -37.91,-0.16 -61.66,-0.49" /><path
         id="path76"
         style="fill:#51abe4;fill-opacity:1;fill-rule:nonzero;stroke:none"
         d="m 2197.43,1410.77 h 76.28 c -18.96,57.69 -29.34,89.48 -31.14,95.36 -10.79,-24.02 -19.95,-43.71 -27.47,-59.07 z m -190.13,-166.74 20.39,35.36 127.03,239.19 13.51,26.76 c 3.93,7.86 9.42,19.16 16.47,33.89 28.8,-0.32 49.84,-0.49 63.1,-0.49 23.08,0 44.44,0.17 64.09,0.49 l 35.83,-102.4 72.88,-196.95 14.24,-35.85 c -28.36,0.33 -45.56,0.49 -51.62,0.49 -13.77,0 -34.01,-0.16 -60.72,-0.49 -7.2,27.01 -17.58,58.77 -31.14,95.28 h -123.62 c -14.23,-28.82 -28.95,-60.57 -44.16,-95.28 -30.49,0.33 -49.17,0.49 -56.05,0.49 -12.46,0 -32.53,-0.16 -60.23,-0.49" /><path
         id="path78"
         style="fill:#51abe4;fill-opacity:1;fill-rule:nonzero;stroke:none"
         d="m 2457.68,1249.19 c -2.13,34.87 -4.58,62.78 -7.37,83.74 18.37,-8.19 34.73,-13.88 49.09,-17.07 14.35,-3.19 26.93,-4.79 37.76,-4.79 14.27,0 25.63,2.09 34.07,6.26 8.45,4.18 12.67,10.36 12.67,18.54 0,2.78 -0.41,5.44 -1.23,7.98 -0.82,2.54 -2.38,5.41 -4.67,8.6 -2.3,3.19 -5.58,6.67 -9.84,10.44 l -46.27,40.27 c -10.83,9.17 -18.37,15.79 -22.64,19.89 -8.69,8.35 -15.46,16.12 -20.3,23.33 -4.84,7.2 -8.37,14.53 -10.58,21.98 -2.22,7.45 -3.32,15.35 -3.32,23.7 0,9.98 1.76,19.76 5.28,29.34 3.52,9.58 8.8,18.54 15.84,26.89 7.03,8.35 16.36,15.55 28,21.61 11.61,6.06 24.05,10.2 37.32,12.41 13.26,2.2 26.92,3.31 41.01,3.31 27.66,0 57.79,-3.19 90.37,-9.58 0.49,-11.29 1.06,-21.65 1.72,-31.06 0.65,-9.42 2.21,-25.91 4.66,-49.49 -15.06,6.06 -28.81,10.28 -41.25,12.65 -12.44,2.37 -23.17,3.56 -32.17,3.56 -12.77,0 -23.37,-2.37 -31.81,-7.12 -8.43,-4.75 -12.64,-10.64 -12.64,-17.68 0,-3.28 0.65,-6.47 1.96,-9.58 1.32,-3.11 3.77,-6.75 7.37,-10.93 3.6,-4.17 8.35,-8.75 14.24,-13.75 5.9,-5 15.15,-12.4 27.76,-22.22 l 17.68,-14 c 5.23,-4.26 10.88,-9.42 16.94,-15.47 6.05,-6.06 11.3,-12.03 15.72,-17.93 4.41,-5.89 7.81,-11.29 10.19,-16.2 2.37,-4.92 4.13,-9.87 5.28,-14.86 1.14,-5 1.72,-10.36 1.72,-16.09 0,-14.73 -3.52,-28.77 -10.56,-42.11 -7.04,-13.35 -17.03,-24.31 -29.96,-32.91 -12.93,-8.6 -27.14,-14.61 -42.61,-18.05 -15.47,-3.44 -31.8,-5.15 -48.99,-5.15 -26.53,0 -60.01,3.84 -100.44,11.54" /><path
         id="path80"
         style="fill:#51abe4;fill-opacity:1;fill-rule:nonzero;stroke:none"
         d="m 2739.6,1244.03 9.5,134.08 4.39,97.74 1.21,43.47 c 0.33,12.6 0.5,24.71 0.5,36.34 l -0.25,23.57 c 25.73,-0.32 44.99,-0.49 57.77,-0.49 10,0 27.37,0.17 52.12,0.49 -3.88,-46.99 -6.39,-88.49 -7.52,-124.5 h 133.67 c 0.81,13.45 1.58,31.62 2.32,54.5 0.73,22.89 1.09,38.51 1.09,46.88 0,4.42 -0.16,12.13 -0.49,23.12 l 58.13,-0.49 c 6.04,0 23.21,0.17 51.49,0.49 -5.84,-84.15 -9.58,-146.73 -11.2,-187.74 -1.63,-41 -2.44,-90.16 -2.44,-147.46 l -53.59,0.49 c -8.03,0 -27.21,-0.16 -57.51,-0.49 4.09,38.96 6.87,84.31 8.35,136.04 h -133.78 l -4.12,-136.04 -57.03,0.49 c -7.22,0 -24.75,-0.16 -52.61,-0.49" /><path
         id="path82"
         style="fill:#204560;fill-opacity:1;fill-rule:nonzero;stroke:none"
         d="m 399.543,1151.39 h 56.18 l 32.742,-84.59 35.027,84.59 h 49.805 l -64.438,-133.97 v -98.088 h -51.004 v 98.088 l -58.312,133.97" /><path
         id="path84"
         style="fill:#204560;fill-opacity:1;fill-rule:nonzero;stroke:none"
         d="m 688.051,1035.45 c 0,31.28 -2.438,52.1 -7.313,62.47 -4.871,10.38 -12.636,15.56 -23.289,15.56 -10.539,0 -18.25,-5.21 -23.121,-15.64 -4.875,-10.43 -7.312,-31.23 -7.312,-62.39 0,-30.61 2.406,-51.29 7.226,-62.059 4.821,-10.762 12.555,-16.149 23.207,-16.149 10.543,0 18.278,5.16 23.203,15.469 4.934,10.309 7.399,31.229 7.399,62.739 z m 53.719,0 c 0,-79.798 -28.043,-119.688 -84.153,-119.688 -27.879,0 -48.906,10.168 -63.074,30.519 -14.164,20.34 -21.246,50.059 -21.246,89.169 0,79.67 28.051,119.51 84.152,119.51 27.43,0 48.336,-9.97 62.731,-29.92 14.394,-19.95 21.59,-49.81 21.59,-89.59" /><path
         id="path86"
         style="fill:#204560;fill-opacity:1;fill-rule:nonzero;stroke:none"
         d="m 777.305,1151.39 h 51.004 v -132.61 c 0,-18.7 0.847,-31.729 2.546,-39.1 1.704,-7.36 5.243,-12.95 10.625,-16.75 5.383,-3.789 11.989,-5.688 19.809,-5.688 8.504,0 15.242,2.098 20.234,6.289 4.985,4.188 8.047,9.75 9.172,16.66 1.137,6.911 1.707,19.778 1.707,38.589 v 132.61 h 42.668 v -130.57 c 0,-26.058 -1.504,-45.5 -4.504,-58.308 -3.003,-12.813 -10.652,-23.801 -22.949,-32.981 -12.301,-9.179 -29.215,-13.769 -50.75,-13.769 -20.176,0 -36.043,3.367 -47.601,10.117 -11.559,6.742 -19.778,16.203 -24.657,28.391 -4.867,12.179 -7.304,33.679 -7.304,64.51 v 132.61" /><path
         id="path88"
         style="fill:#204560;fill-opacity:1;fill-rule:nonzero;stroke:none"
         d="m 1029.94,1113.82 v -65.11 h 22.44 c 19.95,0 29.92,11.16 29.92,33.49 0,7.7 -1.47,14.02 -4.41,18.95 -2.95,4.93 -6.38,8.27 -10.29,10.04 -3.92,1.75 -9.67,2.63 -17.26,2.63 z m -51.002,37.57 h 72.932 c 14.17,0 25.02,-0.65 32.56,-1.95 7.54,-1.31 15.15,-4.82 22.86,-10.54 7.71,-5.73 13.74,-13.55 18.11,-23.47 4.36,-9.91 6.54,-21.05 6.54,-33.4 0,-29.02 -10.87,-49.42 -32.64,-61.21 l 42.67,-101.488 h -55.51 l -31.04,91.798 h -25.48 v -91.798 h -51.002 v 232.058" /><path
         id="path90"
         style="fill:#204560;fill-opacity:1;fill-rule:nonzero;stroke:none"
         d="m 1375.57,1100.9 -42.16,-16.15 c -6.01,19.15 -17,28.73 -32.99,28.73 -7.47,0 -13.4,-2.13 -17.76,-6.38 -4.36,-4.25 -6.55,-9.21 -6.55,-14.87 0,-6.58 2.58,-11.82 7.74,-15.73 5.16,-3.9 15.95,-9.04 32.39,-15.38 14.96,-5.56 26.72,-11.05 35.27,-16.49 8.56,-5.44 15.47,-12.84 20.74,-22.19 5.28,-9.35 7.91,-20.21 7.91,-32.549 0,-21.661 -7.45,-39.422 -22.36,-53.301 -14.9,-13.891 -34.88,-20.828 -59.92,-20.828 -42.05,0 -68.92,21.25 -80.59,63.75 l 44.54,12.75 c 5.44,-23.34 17.85,-35.02 37.24,-35.02 8.84,0 16.01,2.289 21.5,6.879 5.5,4.598 8.25,10.629 8.25,18.109 0,5.668 -1.93,10.739 -5.78,15.219 -3.86,4.471 -12.7,9.211 -26.52,14.191 -17.8,6.35 -31.06,12.1 -39.79,17.26 -8.73,5.15 -15.92,12.52 -21.59,22.1 -5.67,9.58 -8.5,20.49 -8.5,32.73 0,20.85 6.72,37.94 20.15,51.26 13.43,13.31 31.19,19.97 53.3,19.97 40.35,0 65.51,-18.02 75.48,-54.06" /><path
         id="path92"
         style="fill:#204560;fill-opacity:1;fill-rule:nonzero;stroke:none"
         d="m 1411.61,1151.39 h 51 V 962.852 h 74.81 v -43.52 h -125.81 v 232.058" /><path
         id="path94"
         style="fill:#204560;fill-opacity:1;fill-rule:nonzero;stroke:none"
         d="m 1667.3,1035.45 c 0,31.28 -2.43,52.1 -7.31,62.47 -4.87,10.38 -12.63,15.56 -23.29,15.56 -10.54,0 -18.25,-5.21 -23.12,-15.64 -4.87,-10.43 -7.31,-31.23 -7.31,-62.39 0,-30.61 2.41,-51.29 7.23,-62.059 4.82,-10.762 12.55,-16.149 23.2,-16.149 10.55,0 18.28,5.16 23.21,15.469 4.93,10.309 7.39,31.229 7.39,62.739 z m 53.73,0 c 0,-79.798 -28.05,-119.688 -84.16,-119.688 -27.88,0 -48.9,10.168 -63.07,30.519 -14.17,20.34 -21.25,50.059 -21.25,89.169 0,79.67 28.05,119.51 84.15,119.51 27.43,0 48.34,-9.97 62.74,-29.92 14.39,-19.95 21.59,-49.81 21.59,-89.59" /><path
         id="path96"
         style="fill:#204560;fill-opacity:1;fill-rule:nonzero;stroke:none"
         d="m 1837.99,1043.09 h 80.59 V 919.332 h -21.6 l -6.62,26.52 c -12.47,-20.063 -31.17,-30.09 -56.11,-30.09 -26.41,0 -47.34,10.398 -62.82,31.187 -15.47,20.801 -23.2,48.774 -23.2,83.911 0,38.19 7.62,68.42 22.86,90.69 15.25,22.28 37.77,33.41 67.58,33.41 47.49,0 74.13,-26.52 79.91,-79.56 l -45.91,-7.48 c -3.17,30.37 -14.16,45.56 -32.98,45.56 -11.44,0 -20.6,-5.61 -27.45,-16.83 -6.86,-11.22 -10.29,-32.47 -10.29,-63.75 0,-27.78 3.34,-47.33 10.03,-58.658 6.69,-11.344 16.5,-17 29.41,-17 20.74,0 31.17,15.36 31.28,46.078 h -34.68 v 39.77" /><path
         id="path98"
         style="fill:#204560;fill-opacity:1;fill-rule:nonzero;stroke:none"
         d="m 2051.64,1007.05 -23.45,95.08 -22.5,-95.08 z m -44.32,144.34 h 51.35 l 66.3,-232.058 h -52.16 l -11.58,47.938 h -65.36 l -11.39,-47.938 h -46.86 l 69.7,232.058" /><path
         id="path100"
         style="fill:#204560;fill-opacity:1;fill-rule:nonzero;stroke:none"
         d="m 2142.48,1151.39 h 56.62 l 59.67,-144.17 v 144.17 h 39.44 V 919.332 h -45.56 L 2181.92,1087.3 V 919.332 h -39.44 v 232.058" /><path
         id="path102"
         style="fill:#204560;fill-opacity:1;fill-rule:nonzero;stroke:none"
         d="m 2404.98,1151.39 h 51 v -93.67 h 55.76 v 93.67 h 51 V 919.332 h -51 v 94.858 h -55.76 v -94.858 h -51 v 232.058" /><path
         id="path104"
         style="fill:#204560;fill-opacity:1;fill-rule:nonzero;stroke:none"
         d="m 2606.6,1151.39 h 141.11 v -39.78 h -90.1 v -53.89 h 70.04 v -39.79 h -70.04 v -57.121 h 90.1 V 919.332 H 2606.6 v 232.058" /><path
         id="path106"
         style="fill:#204560;fill-opacity:1;fill-rule:nonzero;stroke:none"
         d="m 2823.7,1113.82 v -65.11 h 22.45 c 19.95,0 29.92,11.16 29.92,33.49 0,7.7 -1.47,14.02 -4.42,18.95 -2.95,4.93 -6.37,8.27 -10.28,10.04 -3.92,1.75 -9.66,2.63 -17.26,2.63 z m -50.99,37.57 h 72.93 c 14.16,0 25.02,-0.65 32.56,-1.95 7.53,-1.31 15.16,-4.82 22.86,-10.54 7.71,-5.73 13.74,-13.55 18.11,-23.47 4.36,-9.91 6.55,-21.05 6.55,-33.4 0,-29.02 -10.88,-49.42 -32.65,-61.21 l 42.67,-101.488 h -55.51 l -31.03,91.798 h -25.5 v -91.798 h -50.99 v 232.058" /><path
         id="path108"
         style="fill:#204560;fill-opacity:1;fill-rule:nonzero;stroke:none"
         d="m 2962.43,1151.39 h 141.1 v -39.78 h -90.1 v -53.89 h 70.04 v -39.79 h -70.04 v -57.121 h 90.1 v -41.477 h -141.1 v 232.058" /><path
         id="path110"
         style="fill:#51abe4;fill-opacity:1;fill-rule:nonzero;stroke:none"
         d="M 3217.81,1630.98 H 285.273 V 1739.9 H 3217.81 v -108.92" /><path
         id="path112"
         style="fill:#51abe4;fill-opacity:1;fill-rule:nonzero;stroke:none"
         d="M 3217.81,738.652 H 285.273 v 108.93 H 3217.81 v -108.93" /><path
         id="path114"
         style="fill:#ed1b26;fill-opacity:1;fill-rule:nonzero;stroke:none"
         d="m 2577.61,2502.68 h -290.39 c -34.2,0 -45.8,45.54 -15.8,61.95 72.37,39.59 163.48,95.52 236.29,159.93 144.22,127.58 244.06,-27.74 244.06,-27.74 0.46,-3.85 0.82,-7.64 1.07,-11.36 6.79,-99.53 -75.47,-182.78 -175.23,-182.78 z m -473.41,2.1 c -51.85,-61.57 -128.83,-96.39 -209.31,-96.39 h -143.35 -143.35 c -80.48,0 -157.46,34.82 -209.31,96.39 -33.85,40.19 -43.27,70.01 -43.27,70.01 h 395.93 395.93 c 0,0 -9.42,-29.82 -43.27,-70.01 z m -888.34,-2.1 H 925.473 c -99.762,0 -182.02,83.25 -175.235,182.78 0.254,3.72 0.61,7.51 1.071,11.36 0,0 99.843,155.32 244.062,27.74 72.809,-64.41 163.919,-120.34 236.289,-159.93 30,-16.41 18.4,-61.95 -15.8,-61.95 z m -2.52,803.05 c 17.17,18.73 39.74,31.57 64.65,36.56 190.09,38.1 473.55,40.24 473.55,40.24 0,0 283.46,-2.14 473.55,-40.24 24.91,-4.99 47.48,-17.83 64.65,-36.56 44.78,-48.86 89.87,-159.13 176.74,-322.26 H 1751.54 1036.6 c 86.87,163.13 131.96,273.4 176.74,322.26 z m 1564.38,-457.58 c -12.07,13.23 -26.5,24.12 -42.29,32.58 l -151.44,81.02 c 10.71,18.27 20.73,32.33 24.45,28.6 0.09,-0.09 0.19,-0.18 0.28,-0.28 28.67,-28.47 70.88,-39.36 109.62,-27.89 57.28,16.96 113.23,61.98 79.66,107.74 -26.17,35.7 -76.55,35.1 -119.75,25.88 -44.49,-9.49 -83.88,-35.14 -111.43,-71.34 l -26.56,-34.91 c -18.78,35.95 -74.32,226.09 -221.01,376.82 -16.65,17.1 -37.99,28.94 -61.36,33.81 -54.18,11.28 -221.83,46.74 -506.35,46.74 -284.52,0 -452.17,-35.46 -506.35,-46.74 -23.37,-4.87 -44.71,-16.71 -61.35,-33.81 C 1037.15,3215.64 981.602,3025.5 962.82,2989.55 l -26.562,34.91 c -27.547,36.2 -66.934,61.85 -111.426,71.34 -43.199,9.22 -93.578,9.82 -119.754,-25.88 -33.562,-45.76 22.383,-90.78 79.664,-107.74 38.738,-11.47 80.949,-0.58 109.613,27.89 0.098,0.1 0.192,0.19 0.286,0.28 3.722,3.73 13.742,-10.33 24.453,-28.6 l -151.442,-81.02 c -15.793,-8.46 -30.222,-19.35 -42.289,-32.58 -71.39,-78.28 -111.332,-180.68 -111.332,-287.32 V 2284.27 H 1751.54 2889.05 v 276.56 c 0,106.64 -39.94,209.04 -111.33,287.32" /><path
         id="path116"
         style="fill:#ffffff;fill-opacity:1;fill-rule:nonzero;stroke:none"
         d="m 3070.82,2007.45 v 87.19 c 0,48.55 -18.94,92.58 -49.67,125.46 6.94,18.21 10.91,37.89 10.91,58.54 0,90.91 -73.7,164.61 -164.62,164.61 -24.48,0 -47.62,-5.48 -68.5,-15.07 -52.76,130.39 -180.5,222.41 -329.8,222.41 -150.14,0 -278.45,-93.05 -330.67,-224.59 -30.01,28.46 -69.73,46.63 -113.72,49.18 0,0.18 0.02,0.36 0.02,0.54 0,105.73 -85.71,191.44 -191.44,191.44 -101.18,0 -183.82,-78.54 -190.77,-177.95 -41.26,46.26 -101.3,75.42 -168.17,75.42 -124.43,0 -225.3,-100.87 -225.3,-225.3 0,-0.96 0.06,-1.9 0.07,-2.86 -9.37,1.84 -19.03,2.86 -28.94,2.86 -32.06,0 -61.69,-10.17 -86.04,-27.34 -1.56,106.4 -88.18,192.2 -194.946,192.2 -67.207,0 -126.461,-34 -161.543,-85.72 -25.171,15.61 -54.757,24.78 -86.554,24.78 -90.914,0 -164.617,-73.7 -164.617,-164.61 0,-30.79 8.609,-59.5 23.32,-84.15 -70.461,-16.19 -123.067,-79.15 -123.067,-154.53 v -32.78 c -50.636,-2.86 -90.851,-44.71 -90.851,-96.07 0,-51.35 40.215,-93.2 90.851,-96.06 v -0.27 H 3070.82 c 53.21,0 96.34,43.13 96.34,96.33 0,53.21 -43.13,96.34 -96.34,96.34" /><path
         id="path118"
         style="fill:#51abe4;fill-opacity:1;fill-rule:nonzero;stroke:none"
         d="M 432.375,1840.02 H 3070.82 c 39.21,0 71.1,31.89 71.1,71.09 0,39.21 -31.89,71.1 -71.1,71.1 h -25.24 v 112.43 c 0,40.2 -15.23,78.64 -42.87,108.23 l -10.75,11.5 5.61,14.72 c 6.13,16.11 9.25,32.78 9.25,49.55 0,76.85 -62.53,139.37 -139.38,139.37 -20.01,0 -39.51,-4.29 -57.97,-12.77 l -24.01,-11.02 -9.92,24.49 c -50.79,125.53 -171.07,206.64 -306.4,206.64 -136.3,0 -256.89,-81.9 -307.21,-208.66 l -13.76,-34.67 -27.06,25.66 c -26.54,25.17 -61.28,40.19 -97.83,42.31 l -24.39,1.41 0.64,25.12 c -0.44,91.28 -74.83,165.4 -166.21,165.4 -86.79,0 -159.52,-67.85 -165.58,-154.47 l -4.17,-59.72 -39.85,44.68 c -37.96,42.57 -92.39,66.98 -149.33,66.98 -110.31,0 -200.06,-89.74 -200.06,-200.06 l 0.39,-33.58 -30.41,5.95 c -34.36,6.73 -68.02,-0.89 -95.59,-20.34 l -39.09,-27.56 -0.7,47.82 c -1.35,92.26 -77.47,167.32 -169.696,167.32 -56.367,0 -108.953,-27.9 -140.656,-74.64 l -13.601,-20.05 -20.594,12.77 c -22.133,13.74 -47.461,20.99 -73.246,20.99 -76.852,0 -139.375,-62.52 -139.375,-139.37 0,-24.94 6.828,-49.57 19.75,-71.21 l 17.769,-29.78 -33.793,-7.76 c -60.922,-14 -103.472,-67.42 -103.472,-129.93 v -56.64 l -23.817,-1.34 c -37.594,-2.12 -67.039,-33.25 -67.039,-70.87 0,-37.61 29.445,-68.74 67.039,-70.86 z M 3070.82,1789.54 H 401.535 v 4.03 c -52.5,13.66 -90.855,61.38 -90.855,117.54 0,56.18 38.355,103.89 90.855,117.55 v 11.3 c 0,75.58 45.113,141.53 112.867,169.62 -8.636,21.98 -13.121,45.4 -13.121,69.06 0,104.69 85.164,189.85 189.856,189.85 27.496,0 54.582,-6.02 79.488,-17.58 41.668,49.53 103.164,78.52 168.609,78.52 106.116,0 195.806,-76.6 215.966,-177.42 22.02,8.88 45.63,13.15 69.9,12.49 12.66,126.38 119.63,225.38 249.29,225.38 55.18,0 108.46,-18.3 151.77,-51.28 27.16,89.24 110.47,153.81 207.16,153.81 112.03,0 204.48,-85.47 215.58,-194.62 28.58,-4.88 55.81,-15.75 79.84,-31.82 64.33,128.53 194.55,209.86 340.4,209.86 147.72,0 279.87,-83.83 343.2,-215.57 17.86,5.47 36.31,8.23 55.1,8.23 104.69,0 189.86,-85.16 189.86,-189.85 0,-17.86 -2.56,-35.59 -7.64,-52.89 30.03,-37.18 46.4,-83.18 46.4,-131.11 v -64.58 c 54.98,-11.65 96.34,-60.56 96.34,-118.95 0,-67.04 -54.54,-121.57 -121.58,-121.57" /><path
         id="path120"
         style="fill:#39a03c;fill-opacity:1;fill-rule:nonzero;stroke:none"
         d="m 3982.01,1325.8 c -1.97,-9.62 -4.34,-23.05 -7.12,-40.27 -2.79,-17.22 -4.67,-30.56 -5.65,-40.03 -35.04,-5.24 -66.31,-7.85 -93.81,-7.85 -26.52,0 -51.2,3.31 -74.04,9.94 -22.84,6.63 -43.8,17.52 -62.86,32.66 -19.08,15.14 -32.71,32.95 -40.89,53.41 -8.19,20.46 -12.28,43.39 -12.28,68.76 0,29.63 5.52,56.28 16.57,79.94 11.05,23.65 26.93,43.38 47.64,59.18 20.71,15.8 43.43,27.09 68.15,33.89 24.72,6.79 50.26,10.19 76.62,10.19 24.23,0 54.18,-3.12 89.88,-9.33 l 0.49,-20.63 c 0.33,-9.01 0.82,-18.91 1.47,-29.72 l 1.72,-27.99 c -19.16,4.58 -34.67,7.69 -46.53,9.33 -11.88,1.64 -22.89,2.46 -33.03,2.46 -22.11,0 -42,-4.42 -59.68,-13.26 -17.68,-8.84 -31.6,-21.7 -41.75,-38.56 -10.15,-16.86 -15.22,-35.53 -15.22,-55.99 0,-18.66 4.25,-34.67 12.77,-48.01 8.51,-13.34 20.01,-23.66 34.5,-30.94 14.49,-7.29 32.38,-10.93 53.66,-10.93 11.62,0 24.27,0.94 37.94,2.83 13.67,1.87 30.82,5.52 51.45,10.92" /><path
         id="path122"
         style="fill:#39a03c;fill-opacity:1;fill-rule:nonzero;stroke:none"
         d="m 4175.08,1410.77 h 76.28 c -18.96,57.69 -29.34,89.48 -31.13,95.36 -10.8,-24.02 -19.96,-43.71 -27.48,-59.07 z m -190.13,-166.74 20.4,35.36 127.02,239.19 13.52,26.76 c 3.93,7.86 9.41,19.16 16.46,33.89 28.81,-0.32 49.84,-0.49 63.1,-0.49 23.08,0 44.44,0.17 64.09,0.49 l 35.83,-102.4 72.89,-196.95 14.23,-35.85 c -28.35,0.33 -45.56,0.49 -51.62,0.49 -13.77,0 -34.01,-0.16 -60.72,-0.49 -7.19,27.01 -17.57,58.77 -31.13,95.28 H 4145.4 c -14.23,-28.82 -28.96,-60.57 -44.17,-95.28 -30.49,0.33 -49.17,0.49 -56.05,0.49 -12.45,0 -32.53,-0.16 -60.23,-0.49" /><path
         id="path124"
         style="fill:#39a03c;fill-opacity:1;fill-rule:nonzero;stroke:none"
         d="m 4437.79,1244.03 c 3.12,28.81 5.58,54.76 7.39,77.84 1.8,23.09 3.36,49.86 4.67,80.31 1.32,30.45 2.3,62.57 2.96,96.38 0.65,33.81 0.99,60.7 0.99,80.67 20.46,-0.49 36.99,-0.73 49.6,-0.73 13.08,0 29.05,0.37 47.87,1.1 18.82,0.74 37.16,1.11 55,1.11 20.95,0 39.61,-0.82 55.98,-2.46 12.28,-1.14 23.45,-3.52 33.52,-7.12 10.06,-3.6 18.53,-7.98 25.41,-13.14 6.87,-5.16 12.6,-10.92 17.19,-17.31 4.58,-6.38 8.14,-13.87 10.68,-22.47 2.54,-8.6 3.81,-17.8 3.81,-27.63 0,-10.97 -1.4,-21.24 -4.18,-30.82 -2.78,-9.57 -7.16,-18.58 -13.14,-27.01 -5.98,-8.43 -13.51,-15.72 -22.59,-21.86 -9.08,-6.14 -21.82,-12.4 -38.19,-18.78 l 12.77,-31.19 c 3.6,-8.68 7.45,-17.52 11.54,-26.52 l 32.91,-71.95 c 1.47,-3.12 4.09,-9.25 7.86,-18.42 -27,0.33 -45.16,0.49 -54.48,0.49 -11.78,0 -31.09,-0.16 -57.92,-0.49 -2.62,8.51 -7.37,24.31 -14.26,47.39 -2.78,9.66 -5.16,17.11 -7.12,22.35 -3.94,11.62 -9.76,27.91 -17.46,48.87 l -25.32,69.49 c 8.84,-1.63 17.51,-2.45 26.03,-2.45 11.95,0 22.8,1.8 32.53,5.4 9.74,3.6 17.11,9.17 22.11,16.7 4.99,7.53 7.48,15.47 7.48,23.82 0,7.04 -1.88,13.22 -5.64,18.54 -3.77,5.32 -9.71,9.29 -17.81,11.91 -8.1,2.62 -20.59,3.93 -37.45,3.93 -5.73,0 -11.66,-0.12 -17.8,-0.37 -6.14,-0.24 -13.31,-0.45 -21.49,-0.61 -2.1,-33.56 -3.95,-74.49 -5.57,-122.78 -1.62,-48.3 -2.66,-95.7 -3.15,-142.19 -27.37,0.33 -45.16,0.49 -53.35,0.49 -9.51,0 -26.63,-0.16 -51.38,-0.49" /><path
         id="path126"
         style="fill:#51abe4;fill-opacity:1;fill-rule:nonzero;stroke:none"
         d="m 4856.79,1244.03 -8.35,45.18 c -1.97,10.64 -5,25.54 -9.1,44.7 l -40.06,183.44 -14.5,61.88 c 20.65,-0.32 37.36,-0.49 50.14,-0.49 14.42,0 31.13,0.17 50.14,0.49 4.42,-26.68 7.94,-46.25 10.57,-58.69 l 20.64,-98.96 c 4.26,-21.29 9.01,-47.24 14.26,-77.85 l 8.08,34.38 29.16,113.45 20.1,87.67 c 22.43,-0.32 41.41,-0.49 56.97,-0.49 16.86,0 35.77,0.17 56.73,0.49 l 15.52,-103.38 21.44,-131.63 9.57,36.1 c 1.8,6.22 3.67,12.52 5.64,18.91 1.96,6.38 6.05,19.07 12.27,38.06 l 29.94,94.3 13.99,47.64 c 19.79,-0.16 36.15,-0.24 49.07,-0.24 14.56,0 30.84,0.08 48.84,0.24 l -95.21,-285.35 -15.22,-49.85 c -24.56,0.33 -46.01,0.49 -64.35,0.49 -19.32,0 -40.68,-0.16 -64.1,-0.49 l -5.64,33.64 -21.57,117.14 c -1.14,7.04 -2.17,14.28 -3.07,21.73 -0.89,7.45 -2.16,19.04 -3.79,34.75 l -8.61,-38.06 c -2.13,-8.52 -4.34,-17.11 -6.63,-25.79 l -39.56,-143.41 c -24.73,0.33 -45.28,0.49 -61.65,0.49 -17.36,0 -37.91,-0.16 -61.66,-0.49" /><path
         id="path128"
         style="fill:#51abe4;fill-opacity:1;fill-rule:nonzero;stroke:none"
         d="m 5483.24,1410.77 h 76.28 c -18.96,57.69 -29.34,89.48 -31.13,95.36 -10.8,-24.02 -19.96,-43.71 -27.48,-59.07 z m -190.13,-166.74 20.4,35.36 127.02,239.19 13.52,26.76 c 3.93,7.86 9.41,19.16 16.46,33.89 28.81,-0.32 49.84,-0.49 63.1,-0.49 23.08,0 44.45,0.17 64.09,0.49 l 35.83,-102.4 72.89,-196.95 14.23,-35.85 c -28.35,0.33 -45.56,0.49 -51.62,0.49 -13.77,0 -34.01,-0.16 -60.72,-0.49 -7.19,27.01 -17.57,58.77 -31.14,95.28 h -123.61 c -14.23,-28.82 -28.96,-60.57 -44.17,-95.28 -30.49,0.33 -49.17,0.49 -56.05,0.49 -12.45,0 -32.53,-0.16 -60.23,-0.49" /><path
         id="path130"
         style="fill:#51abe4;fill-opacity:1;fill-rule:nonzero;stroke:none"
         d="m 5743.5,1249.19 c -2.14,34.87 -4.59,62.78 -7.38,83.74 18.37,-8.19 34.74,-13.88 49.09,-17.07 14.35,-3.19 26.93,-4.79 37.76,-4.79 14.27,0 25.63,2.09 34.08,6.26 8.44,4.18 12.67,10.36 12.67,18.54 0,2.78 -0.41,5.44 -1.23,7.98 -0.82,2.54 -2.38,5.41 -4.67,8.6 -2.3,3.19 -5.59,6.67 -9.85,10.44 l -46.27,40.27 c -10.82,9.17 -18.37,15.79 -22.64,19.89 -8.69,8.35 -15.46,16.12 -20.29,23.33 -4.85,7.2 -8.38,14.53 -10.59,21.98 -2.21,7.45 -3.32,15.35 -3.32,23.7 0,9.98 1.76,19.76 5.28,29.34 3.52,9.58 8.8,18.54 15.84,26.89 7.03,8.35 16.37,15.55 28,21.61 11.61,6.06 24.06,10.2 37.32,12.41 13.26,2.2 26.93,3.31 41.02,3.31 27.65,0 57.79,-3.19 90.36,-9.58 0.5,-11.29 1.06,-21.65 1.72,-31.06 0.66,-9.42 2.21,-25.91 4.67,-49.49 -15.07,6.06 -28.82,10.28 -41.25,12.65 -12.45,2.37 -23.17,3.56 -32.18,3.56 -12.77,0 -23.37,-2.37 -31.8,-7.12 -8.44,-4.75 -12.65,-10.64 -12.65,-17.68 0,-3.28 0.66,-6.47 1.96,-9.58 1.32,-3.11 3.77,-6.75 7.38,-10.93 3.6,-4.17 8.34,-8.75 14.24,-13.75 5.89,-5 15.14,-12.4 27.75,-22.22 l 17.68,-14 c 5.24,-4.26 10.88,-9.42 16.95,-15.47 6.04,-6.06 11.29,-12.03 15.71,-17.93 4.42,-5.89 7.81,-11.29 10.19,-16.2 2.37,-4.92 4.13,-9.87 5.28,-14.86 1.15,-5 1.72,-10.36 1.72,-16.09 0,-14.73 -3.52,-28.77 -10.56,-42.11 -7.04,-13.35 -17.03,-24.31 -29.96,-32.91 -12.93,-8.6 -27.13,-14.61 -42.61,-18.05 -15.47,-3.44 -31.8,-5.15 -48.99,-5.15 -26.52,0 -60,3.84 -100.43,11.54" /><path
         id="path132"
         style="fill:#51abe4;fill-opacity:1;fill-rule:nonzero;stroke:none"
         d="m 6025.41,1244.03 9.5,134.08 4.39,97.74 1.22,43.47 c 0.33,12.6 0.49,24.71 0.49,36.34 l -0.25,23.57 c 25.73,-0.32 44.99,-0.49 57.77,-0.49 10.01,0 27.37,0.17 52.12,0.49 -3.88,-46.99 -6.39,-88.49 -7.51,-124.5 h 133.66 c 0.81,13.45 1.59,31.62 2.32,54.5 0.73,22.89 1.1,38.51 1.1,46.88 0,4.42 -0.17,12.13 -0.49,23.12 l 58.12,-0.49 c 6.05,0 23.21,0.17 51.5,0.49 -5.85,-84.15 -9.59,-146.73 -11.21,-187.74 -1.63,-41 -2.44,-90.16 -2.44,-147.46 l -53.59,0.49 c -8.02,0 -27.2,-0.16 -57.51,-0.49 4.1,38.96 6.88,84.31 8.35,136.04 h -133.78 l -4.12,-136.04 -57.03,0.49 c -7.21,0 -24.75,-0.16 -52.61,-0.49" /><path
         id="path134"
         style="fill:#204560;fill-opacity:1;fill-rule:nonzero;stroke:none"
         d="m 3685.36,1151.39 h 56.18 l 32.74,-84.59 35.02,84.59 h 49.81 l -64.44,-133.97 v -98.088 h -51 v 98.088 l -58.31,133.97" /><path
         id="path136"
         style="fill:#204560;fill-opacity:1;fill-rule:nonzero;stroke:none"
         d="m 3973.86,1035.45 c 0,31.28 -2.43,52.1 -7.31,62.47 -4.87,10.38 -12.64,15.56 -23.29,15.56 -10.54,0 -18.25,-5.21 -23.12,-15.64 -4.87,-10.43 -7.31,-31.23 -7.31,-62.39 0,-30.61 2.41,-51.29 7.22,-62.059 4.82,-10.762 12.56,-16.149 23.21,-16.149 10.55,0 18.28,5.16 23.21,15.469 4.93,10.309 7.39,31.229 7.39,62.739 z m 53.72,0 c 0,-79.798 -28.04,-119.688 -84.15,-119.688 -27.88,0 -48.91,10.168 -63.07,30.519 -14.17,20.34 -21.25,50.059 -21.25,89.169 0,79.67 28.05,119.51 84.15,119.51 27.43,0 48.34,-9.97 62.73,-29.92 14.4,-19.95 21.59,-49.81 21.59,-89.59" /><path
         id="path138"
         style="fill:#204560;fill-opacity:1;fill-rule:nonzero;stroke:none"
         d="m 4063.12,1151.39 h 51 v -132.61 c 0,-18.7 0.85,-31.729 2.55,-39.1 1.7,-7.36 5.24,-12.95 10.62,-16.75 5.39,-3.789 11.99,-5.688 19.81,-5.688 8.5,0 15.25,2.098 20.23,6.289 4.99,4.188 8.05,9.75 9.18,16.66 1.14,6.911 1.71,19.778 1.71,38.589 v 132.61 h 42.67 v -130.57 c 0,-26.058 -1.51,-45.5 -4.51,-58.308 -3.01,-12.813 -10.65,-23.801 -22.95,-32.981 -12.3,-9.179 -29.21,-13.769 -50.75,-13.769 -20.18,0 -36.04,3.367 -47.6,10.117 -11.56,6.742 -19.78,16.203 -24.66,28.391 -4.87,12.179 -7.3,33.679 -7.3,64.51 v 132.61" /><path
         id="path140"
         style="fill:#204560;fill-opacity:1;fill-rule:nonzero;stroke:none"
         d="m 4315.75,1113.82 v -65.11 h 22.44 c 19.95,0 29.93,11.16 29.93,33.49 0,7.7 -1.48,14.02 -4.42,18.95 -2.95,4.93 -6.38,8.27 -10.29,10.04 -3.91,1.75 -9.67,2.63 -17.26,2.63 z m -51,37.57 h 72.93 c 14.17,0 25.02,-0.65 32.56,-1.95 7.54,-1.31 15.16,-4.82 22.87,-10.54 7.7,-5.73 13.74,-13.55 18.1,-23.47 4.37,-9.91 6.55,-21.05 6.55,-33.4 0,-29.02 -10.88,-49.42 -32.64,-61.21 l 42.67,-101.488 h -55.52 l -31.04,91.798 h -25.48 v -91.798 h -51 v 232.058" /><path
         id="path142"
         style="fill:#204560;fill-opacity:1;fill-rule:nonzero;stroke:none"
         d="m 4661.38,1100.9 -42.16,-16.15 c -6.01,19.15 -17,28.73 -32.98,28.73 -7.48,0 -13.41,-2.13 -17.77,-6.38 -4.36,-4.25 -6.54,-9.21 -6.54,-14.87 0,-6.58 2.57,-11.82 7.73,-15.73 5.16,-3.9 15.96,-9.04 32.39,-15.38 14.96,-5.56 26.72,-11.05 35.27,-16.49 8.56,-5.44 15.48,-12.84 20.74,-22.19 5.28,-9.35 7.92,-20.21 7.92,-32.549 0,-21.661 -7.46,-39.422 -22.37,-53.301 -14.9,-13.891 -34.87,-20.828 -59.92,-20.828 -42.05,0 -68.92,21.25 -80.58,63.75 l 44.54,12.75 c 5.44,-23.34 17.84,-35.02 37.23,-35.02 8.84,0 16.01,2.289 21.51,6.879 5.49,4.598 8.24,10.629 8.24,18.109 0,5.668 -1.93,10.739 -5.78,15.219 -3.86,4.471 -12.7,9.211 -26.52,14.191 -17.8,6.35 -31.06,12.1 -39.78,17.26 -8.73,5.15 -15.93,12.52 -21.59,22.1 -5.67,9.58 -8.51,20.49 -8.51,32.73 0,20.85 6.72,37.94 20.15,51.26 13.43,13.31 31.2,19.97 53.3,19.97 40.35,0 65.51,-18.02 75.48,-54.06" /><path
         id="path144"
         style="fill:#204560;fill-opacity:1;fill-rule:nonzero;stroke:none"
         d="m 4697.43,1151.39 h 51 V 962.852 h 74.8 v -43.52 h -125.8 v 232.058" /><path
         id="path146"
         style="fill:#204560;fill-opacity:1;fill-rule:nonzero;stroke:none"
         d="m 4953.12,1035.45 c 0,31.28 -2.44,52.1 -7.31,62.47 -4.87,10.38 -12.64,15.56 -23.29,15.56 -10.54,0 -18.25,-5.21 -23.12,-15.64 -4.88,-10.43 -7.31,-31.23 -7.31,-62.39 0,-30.61 2.4,-51.29 7.22,-62.059 4.82,-10.762 12.55,-16.149 23.21,-16.149 10.54,0 18.27,5.16 23.2,15.469 4.93,10.309 7.4,31.229 7.4,62.739 z m 53.72,0 c 0,-79.798 -28.05,-119.688 -84.15,-119.688 -27.89,0 -48.91,10.168 -63.08,30.519 -14.16,20.34 -21.25,50.059 -21.25,89.169 0,79.67 28.06,119.51 84.16,119.51 27.43,0 48.33,-9.97 62.73,-29.92 14.39,-19.95 21.59,-49.81 21.59,-89.59" /><path
         id="path148"
         style="fill:#204560;fill-opacity:1;fill-rule:nonzero;stroke:none"
         d="m 5123.81,1043.09 h 80.58 V 919.332 h -21.59 l -6.63,26.52 c -12.47,-20.063 -31.17,-30.09 -56.1,-30.09 -26.42,0 -47.35,10.398 -62.82,31.187 -15.47,20.801 -23.21,48.774 -23.21,83.911 0,38.19 7.62,68.42 22.87,90.69 15.24,22.28 37.77,33.41 67.57,33.41 47.49,0 74.13,-26.52 79.91,-79.56 l -45.9,-7.48 c -3.17,30.37 -14.17,45.56 -32.98,45.56 -11.45,0 -20.6,-5.61 -27.46,-16.83 -6.86,-11.22 -10.29,-32.47 -10.29,-63.75 0,-27.78 3.35,-47.33 10.04,-58.658 6.68,-11.344 16.49,-17 29.4,-17 20.75,0 31.17,15.36 31.29,46.078 h -34.68 v 39.77" /><path
         id="path150"
         style="fill:#204560;fill-opacity:1;fill-rule:nonzero;stroke:none"
         d="m 5337.45,1007.05 -23.45,95.08 -22.5,-95.08 z m -44.31,144.34 h 51.34 l 66.3,-232.058 h -52.16 l -11.57,47.938 h -65.37 l -11.38,-47.938 h -46.86 l 69.7,232.058" /><path
         id="path152"
         style="fill:#204560;fill-opacity:1;fill-rule:nonzero;stroke:none"
         d="m 5428.3,1151.39 h 56.61 l 59.67,-144.17 v 144.17 h 39.44 V 919.332 h -45.56 L 5467.74,1087.3 V 919.332 h -39.44 v 232.058" /><path
         id="path154"
         style="fill:#204560;fill-opacity:1;fill-rule:nonzero;stroke:none"
         d="m 5690.79,1151.39 h 51 v -93.67 h 55.77 v 93.67 h 51 V 919.332 h -51 v 94.858 h -55.77 v -94.858 h -51 v 232.058" /><path
         id="path156"
         style="fill:#204560;fill-opacity:1;fill-rule:nonzero;stroke:none"
         d="m 5892.42,1151.39 h 141.11 v -39.78 h -90.11 v -53.89 h 70.04 v -39.79 h -70.04 v -57.121 h 90.11 v -41.477 h -141.11 v 232.058" /><path
         id="path158"
         style="fill:#204560;fill-opacity:1;fill-rule:nonzero;stroke:none"
         d="m 6109.52,1113.82 v -65.11 h 22.44 c 19.95,0 29.92,11.16 29.92,33.49 0,7.7 -1.47,14.02 -4.41,18.95 -2.96,4.93 -6.38,8.27 -10.29,10.04 -3.91,1.75 -9.66,2.63 -17.26,2.63 z m -51,37.57 h 72.93 c 14.17,0 25.02,-0.65 32.56,-1.95 7.53,-1.31 15.16,-4.82 22.86,-10.54 7.71,-5.73 13.75,-13.55 18.11,-23.47 4.36,-9.91 6.55,-21.05 6.55,-33.4 0,-29.02 -10.88,-49.42 -32.64,-61.21 l 42.67,-101.488 h -55.52 l -31.03,91.798 h -25.49 v -91.798 h -51 v 232.058" /><path
         id="path160"
         style="fill:#204560;fill-opacity:1;fill-rule:nonzero;stroke:none"
         d="m 6248.25,1151.39 h 141.1 v -39.78 h -90.11 v -53.89 h 70.05 v -39.79 h -70.05 v -57.121 h 90.11 v -41.477 h -141.1 v 232.058" /><path
         id="path162"
         style="fill:#51abe4;fill-opacity:1;fill-rule:nonzero;stroke:none"
         d="M 6503.62,1630.98 H 3571.09 v 108.92 h 2932.53 v -108.92" /><path
         id="path164"
         style="fill:#51abe4;fill-opacity:1;fill-rule:nonzero;stroke:none"
         d="M 6503.62,738.652 H 3571.09 v 108.93 h 2932.53 v -108.93" /><path
         id="path166"
         style="fill:#39a03c;fill-opacity:1;fill-rule:nonzero;stroke:none"
         d="m 5863.42,2502.68 h -290.39 c -34.19,0 -45.8,45.54 -15.8,61.95 72.38,39.59 163.49,95.52 236.29,159.93 144.22,127.58 244.06,-27.74 244.06,-27.74 0.47,-3.85 0.82,-7.64 1.08,-11.36 6.78,-99.53 -75.48,-182.78 -175.24,-182.78 z m -473.41,2.1 c -51.84,-61.57 -128.82,-96.39 -209.31,-96.39 H 5037.35 4894 c -80.48,0 -157.46,34.82 -209.31,96.39 -33.84,40.19 -43.27,70.01 -43.27,70.01 h 395.93 395.93 c 0,0 -9.42,-29.82 -43.27,-70.01 z m -888.33,-2.1 h -290.39 c -99.77,0 -182.02,83.25 -175.24,182.78 0.26,3.72 0.61,7.51 1.07,11.36 0,0 99.85,155.32 244.06,27.74 72.81,-64.41 163.92,-120.34 236.3,-159.93 29.99,-16.41 18.39,-61.95 -15.8,-61.95 z m -2.52,803.05 c 17.17,18.73 39.73,31.57 64.64,36.56 190.09,38.1 473.55,40.24 473.55,40.24 0,0 283.47,-2.14 473.55,-40.24 24.92,-4.99 47.48,-17.83 64.65,-36.56 44.79,-48.86 89.88,-159.13 176.75,-322.26 h -714.95 -714.94 c 86.87,163.13 131.96,273.4 176.75,322.26 z m 1564.37,-457.58 c -12.07,13.23 -26.5,24.12 -42.29,32.58 l -151.44,81.02 c 10.71,18.27 20.73,32.33 24.45,28.6 0.1,-0.09 0.19,-0.18 0.29,-0.28 28.66,-28.47 70.87,-39.36 109.61,-27.89 57.28,16.96 113.23,61.98 79.67,107.74 -26.18,35.7 -76.56,35.1 -119.76,25.88 -44.49,-9.49 -83.88,-35.14 -111.42,-71.34 l -26.56,-34.91 c -18.79,35.95 -74.33,226.09 -221.02,376.82 -16.65,17.1 -37.99,28.94 -61.36,33.81 -54.18,11.28 -221.83,46.74 -506.35,46.74 -284.52,0 -452.17,-35.46 -506.35,-46.74 -23.36,-4.87 -44.71,-16.71 -61.35,-33.81 -146.69,-150.73 -202.24,-340.87 -221.02,-376.82 l -26.56,34.91 c -27.55,36.2 -66.93,61.85 -111.42,71.34 -43.21,9.22 -93.58,9.82 -119.76,-25.88 -33.56,-45.76 22.39,-90.78 79.67,-107.74 38.74,-11.47 80.95,-0.58 109.61,27.89 0.1,0.1 0.19,0.19 0.28,0.28 3.73,3.73 13.74,-10.33 24.46,-28.6 l -151.44,-81.02 c -15.8,-8.46 -30.23,-19.35 -42.29,-32.58 -71.4,-78.28 -111.34,-180.68 -111.34,-287.32 v -276.56 h 1137.51 1137.51 v 276.56 c 0,106.64 -39.94,209.04 -111.33,287.32" /><path
         id="path168"
         style="fill:#ffffff;fill-opacity:1;fill-rule:nonzero;stroke:none"
         d="m 6356.63,2007.45 v 87.19 c 0,48.55 -18.94,92.58 -49.67,125.46 6.94,18.21 10.91,37.89 10.91,58.54 0,90.91 -73.7,164.61 -164.61,164.61 -24.48,0 -47.63,-5.48 -68.51,-15.07 -52.76,130.39 -180.5,222.41 -329.8,222.41 -150.13,0 -278.45,-93.05 -330.66,-224.59 -30.02,28.46 -69.74,46.63 -113.73,49.18 0,0.18 0.03,0.36 0.03,0.54 0,105.73 -85.72,191.44 -191.45,191.44 -101.18,0 -183.82,-78.54 -190.77,-177.95 -41.26,46.26 -101.3,75.42 -168.17,75.42 -124.43,0 -225.3,-100.87 -225.3,-225.3 0,-0.96 0.06,-1.9 0.07,-2.86 -9.37,1.84 -19.03,2.86 -28.94,2.86 -32.06,0 -61.69,-10.17 -86.04,-27.34 -1.56,106.4 -88.17,192.2 -194.94,192.2 -67.21,0 -126.46,-34 -161.55,-85.72 -25.17,15.61 -54.75,24.78 -86.55,24.78 -90.92,0 -164.62,-73.7 -164.62,-164.61 0,-30.79 8.61,-59.5 23.32,-84.15 -70.46,-16.19 -123.06,-79.15 -123.06,-154.53 v -32.78 c -50.64,-2.86 -90.86,-44.71 -90.86,-96.07 0,-51.35 40.22,-93.2 90.86,-96.06 v -0.27 h 2644.04 c 53.21,0 96.34,43.13 96.34,96.33 0,53.21 -43.13,96.34 -96.34,96.34" /><path
         id="path170"
         style="fill:#51abe4;fill-opacity:1;fill-rule:nonzero;stroke:none"
         d="m 3718.19,1840.02 h 2638.45 c 39.2,0 71.09,31.89 71.09,71.09 0,39.21 -31.89,71.1 -71.09,71.1 h -25.25 v 112.43 c 0,40.2 -15.22,78.64 -42.87,108.23 l -10.75,11.5 5.61,14.72 c 6.14,16.11 9.25,32.78 9.25,49.55 0,76.85 -62.52,139.37 -139.37,139.37 -20.01,0 -39.52,-4.29 -57.98,-12.77 l -24.01,-11.02 -9.91,24.49 c -50.8,125.53 -171.07,206.64 -306.41,206.64 -136.3,0 -256.88,-81.9 -307.2,-208.66 l -13.77,-34.67 -27.06,25.66 c -26.53,25.17 -61.27,40.19 -97.82,42.31 l -24.4,1.41 0.64,25.12 c -0.43,91.28 -74.82,165.4 -166.2,165.4 -86.8,0 -159.53,-67.85 -165.59,-154.47 l -4.17,-59.72 -39.84,44.68 c -37.97,42.57 -92.4,66.98 -149.34,66.98 -110.31,0 -200.06,-89.74 -200.06,-200.06 l 0.4,-33.58 -30.42,5.95 c -34.36,6.73 -68.01,-0.89 -95.59,-20.34 l -39.08,-27.56 -0.7,47.82 c -1.35,92.26 -77.48,167.32 -169.7,167.32 -56.37,0 -108.96,-27.9 -140.66,-74.64 l -13.6,-20.05 -20.59,12.77 c -22.14,13.74 -47.47,20.99 -73.25,20.99 -76.85,0 -139.38,-62.52 -139.38,-139.37 0,-24.94 6.83,-49.57 19.75,-71.21 l 17.77,-29.78 -33.79,-7.76 c -60.92,-14 -103.47,-67.42 -103.47,-129.93 v -56.64 l -23.82,-1.34 c -37.59,-2.12 -67.04,-33.25 -67.04,-70.87 0,-37.61 29.45,-68.74 67.04,-70.86 z m 2638.45,-50.48 H 3687.35 v 4.03 c -52.5,13.66 -90.86,61.38 -90.86,117.54 0,56.18 38.36,103.89 90.86,117.55 v 11.3 c 0,75.58 45.11,141.53 112.87,169.62 -8.64,21.98 -13.13,45.4 -13.13,69.06 0,104.69 85.17,189.85 189.86,189.85 27.49,0 54.58,-6.02 79.49,-17.58 41.66,49.53 103.16,78.52 168.61,78.52 106.11,0 195.8,-76.6 215.97,-177.42 22.01,8.88 45.63,13.15 69.89,12.49 12.66,126.38 119.63,225.38 249.29,225.38 55.18,0 108.47,-18.3 151.78,-51.28 27.15,89.24 110.46,153.81 207.16,153.81 112.03,0 204.47,-85.47 215.57,-194.62 28.58,-4.88 55.81,-15.75 79.84,-31.82 64.33,128.53 194.55,209.86 340.4,209.86 147.72,0 279.88,-83.83 343.21,-215.57 17.85,5.47 36.3,8.23 55.1,8.23 104.69,0 189.85,-85.16 189.85,-189.85 0,-17.86 -2.56,-35.59 -7.63,-52.89 30.02,-37.18 46.4,-83.18 46.4,-131.11 v -64.58 c 54.97,-11.65 96.33,-60.56 96.33,-118.95 0,-67.04 -54.53,-121.57 -121.57,-121.57" /><path
         id="path172"
         style="fill:#ecec07;fill-opacity:1;fill-rule:nonzero;stroke:none"
         d="m 7267.82,1325.8 c -1.96,-9.62 -4.34,-23.05 -7.12,-40.27 -2.79,-17.22 -4.67,-30.56 -5.65,-40.03 -35.03,-5.24 -66.3,-7.85 -93.81,-7.85 -26.52,0 -51.2,3.31 -74.04,9.94 -22.84,6.63 -43.79,17.52 -62.86,32.66 -19.08,15.14 -32.71,32.95 -40.89,53.41 -8.19,20.46 -12.28,43.39 -12.28,68.76 0,29.63 5.52,56.28 16.57,79.94 11.06,23.65 26.93,43.38 47.65,59.18 20.71,15.8 43.42,27.09 68.14,33.89 24.72,6.79 50.26,10.19 76.62,10.19 24.23,0 54.19,-3.12 89.88,-9.33 l 0.49,-20.63 c 0.33,-9.01 0.82,-18.91 1.47,-29.72 l 1.72,-27.99 c -19.15,4.58 -34.66,7.69 -46.53,9.33 -11.87,1.64 -22.88,2.46 -33.03,2.46 -22.1,0 -41.99,-4.42 -59.67,-13.26 -17.68,-8.84 -31.6,-21.7 -41.75,-38.56 -10.15,-16.86 -15.23,-35.53 -15.23,-55.99 0,-18.66 4.26,-34.67 12.77,-48.01 8.51,-13.34 20.02,-23.66 34.5,-30.94 14.5,-7.29 32.38,-10.93 53.66,-10.93 11.62,0 24.27,0.94 37.94,2.83 13.67,1.87 30.82,5.52 51.45,10.92" /><path
         id="path174"
         style="fill:#ecec07;fill-opacity:1;fill-rule:nonzero;stroke:none"
         d="m 7460.9,1410.77 h 76.27 c -18.95,57.69 -29.34,89.48 -31.13,95.36 -10.8,-24.02 -19.96,-43.71 -27.48,-59.07 z m -190.13,-166.74 20.39,35.36 127.03,239.19 13.51,26.76 c 3.93,7.86 9.42,19.16 16.46,33.89 28.81,-0.32 49.84,-0.49 63.11,-0.49 23.08,0 44.44,0.17 64.08,0.49 l 35.83,-102.4 72.89,-196.95 14.24,-35.85 c -28.36,0.33 -45.56,0.49 -51.63,0.49 -13.76,0 -34,-0.16 -60.72,-0.49 -7.19,27.01 -17.57,58.77 -31.13,95.28 h -123.62 c -14.23,-28.82 -28.96,-60.57 -44.17,-95.28 -30.48,0.33 -49.16,0.49 -56.05,0.49 -12.45,0 -32.53,-0.16 -60.22,-0.49" /><path
         id="path176"
         style="fill:#ecec07;fill-opacity:1;fill-rule:nonzero;stroke:none"
         d="m 7723.6,1244.03 c 3.12,28.81 5.58,54.76 7.39,77.84 1.8,23.09 3.36,49.86 4.68,80.31 1.31,30.45 2.3,62.57 2.95,96.38 0.66,33.81 0.99,60.7 0.99,80.67 20.46,-0.49 36.99,-0.73 49.6,-0.73 13.09,0 29.05,0.37 47.88,1.1 18.82,0.74 37.15,1.11 54.99,1.11 20.96,0 39.62,-0.82 55.99,-2.46 12.27,-1.14 23.44,-3.52 33.51,-7.12 10.07,-3.6 18.54,-7.98 25.41,-13.14 6.88,-5.16 12.61,-10.92 17.19,-17.31 4.58,-6.38 8.14,-13.87 10.68,-22.47 2.54,-8.6 3.81,-17.8 3.81,-27.63 0,-10.97 -1.4,-21.24 -4.18,-30.82 -2.78,-9.57 -7.16,-18.58 -13.14,-27.01 -5.98,-8.43 -13.5,-15.72 -22.59,-21.86 -9.08,-6.14 -21.82,-12.4 -38.19,-18.78 l 12.77,-31.19 c 3.6,-8.68 7.45,-17.52 11.55,-26.52 l 32.9,-71.95 c 1.48,-3.12 4.09,-9.25 7.86,-18.42 -27,0.33 -45.15,0.49 -54.47,0.49 -11.79,0 -31.09,-0.16 -57.92,-0.49 -2.62,8.51 -7.38,24.31 -14.26,47.39 -2.79,9.66 -5.17,17.11 -7.13,22.35 -3.94,11.62 -9.76,27.91 -17.46,48.87 l -25.32,69.49 c 8.84,-1.63 17.52,-2.45 26.03,-2.45 11.95,0 22.8,1.8 32.54,5.4 9.73,3.6 17.1,9.17 22.1,16.7 4.99,7.53 7.49,15.47 7.49,23.82 0,7.04 -1.89,13.22 -5.65,18.54 -3.77,5.32 -9.7,9.29 -17.81,11.91 -8.1,2.62 -20.59,3.93 -37.44,3.93 -5.74,0 -11.67,-0.12 -17.81,-0.37 -6.14,-0.24 -13.3,-0.45 -21.48,-0.61 -2.1,-33.56 -3.96,-74.49 -5.58,-122.78 -1.61,-48.3 -2.66,-95.7 -3.14,-142.19 -27.38,0.33 -45.16,0.49 -53.35,0.49 -9.52,0 -26.64,-0.16 -51.39,-0.49" /><path
         id="path178"
         style="fill:#51abe4;fill-opacity:1;fill-rule:nonzero;stroke:none"
         d="m 8142.61,1244.03 -8.36,45.18 c -1.97,10.64 -5,25.54 -9.09,44.7 l -40.06,183.44 -14.5,61.88 c 20.64,-0.32 37.35,-0.49 50.13,-0.49 14.42,0 31.13,0.17 50.14,0.49 4.42,-26.68 7.94,-46.25 10.57,-58.69 l 20.65,-98.96 c 4.25,-21.29 9.01,-47.24 14.25,-77.85 l 8.08,34.38 29.16,113.45 20.1,87.67 c 22.43,-0.32 41.42,-0.49 56.98,-0.49 16.85,0 35.76,0.17 56.72,0.49 l 15.52,-103.38 21.44,-131.63 9.57,36.1 c 1.8,6.22 3.68,12.52 5.64,18.91 1.97,6.38 6.06,19.07 12.28,38.06 l 29.94,94.3 13.98,47.64 c 19.79,-0.16 36.15,-0.24 49.08,-0.24 14.55,0 30.84,0.08 48.83,0.24 l -95.21,-285.35 -15.22,-49.85 c -24.56,0.33 -46.01,0.49 -64.34,0.49 -19.33,0 -40.69,-0.16 -64.11,-0.49 l -5.63,33.64 -21.58,117.14 c -1.14,7.04 -2.16,14.28 -3.06,21.73 -0.9,7.45 -2.17,19.04 -3.8,34.75 l -8.6,-38.06 c -2.13,-8.52 -4.35,-17.11 -6.64,-25.79 l -39.56,-143.41 c -24.72,0.33 -45.28,0.49 -61.65,0.49 -17.36,0 -37.91,-0.16 -61.65,-0.49" /><path
         id="path180"
         style="fill:#51abe4;fill-opacity:1;fill-rule:nonzero;stroke:none"
         d="m 8769.06,1410.77 h 76.27 c -18.95,57.69 -29.34,89.48 -31.13,95.36 -10.8,-24.02 -19.96,-43.71 -27.48,-59.07 z m -190.13,-166.74 20.39,35.36 127.03,239.19 13.51,26.76 c 3.93,7.86 9.42,19.16 16.46,33.89 28.81,-0.32 49.84,-0.49 63.11,-0.49 23.08,0 44.44,0.17 64.08,0.49 l 35.83,-102.4 72.89,-196.95 14.23,-35.85 c -28.35,0.33 -45.56,0.49 -51.62,0.49 -13.76,0 -34.01,-0.16 -60.72,-0.49 -7.19,27.01 -17.57,58.77 -31.13,95.28 h -123.62 c -14.23,-28.82 -28.96,-60.57 -44.17,-95.28 -30.48,0.33 -49.17,0.49 -56.04,0.49 -12.46,0 -32.54,-0.16 -60.23,-0.49" /><path
         id="path182"
         style="fill:#51abe4;fill-opacity:1;fill-rule:nonzero;stroke:none"
         d="m 9029.31,1249.19 c -2.14,34.87 -4.59,62.78 -7.37,83.74 18.37,-8.19 34.73,-13.88 49.08,-17.07 14.35,-3.19 26.94,-4.79 37.77,-4.79 14.26,0 25.63,2.09 34.07,6.26 8.44,4.18 12.67,10.36 12.67,18.54 0,2.78 -0.41,5.44 -1.23,7.98 -0.82,2.54 -2.38,5.41 -4.67,8.6 -2.3,3.19 -5.59,6.67 -9.85,10.44 l -46.27,40.27 c -10.82,9.17 -18.37,15.79 -22.64,19.89 -8.68,8.35 -15.45,16.12 -20.29,23.33 -4.85,7.2 -8.37,14.53 -10.59,21.98 -2.21,7.45 -3.32,15.35 -3.32,23.7 0,9.98 1.76,19.76 5.28,29.34 3.52,9.58 8.8,18.54 15.84,26.89 7.04,8.35 16.37,15.55 28,21.61 11.62,6.06 24.06,10.2 37.32,12.41 13.27,2.2 26.93,3.31 41.02,3.31 27.66,0 57.79,-3.19 90.36,-9.58 0.5,-11.29 1.07,-21.65 1.73,-31.06 0.65,-9.42 2.2,-25.91 4.66,-49.49 -15.07,6.06 -28.82,10.28 -41.25,12.65 -12.45,2.37 -23.17,3.56 -32.17,3.56 -12.78,0 -23.37,-2.37 -31.81,-7.12 -8.43,-4.75 -12.64,-10.64 -12.64,-17.68 0,-3.28 0.65,-6.47 1.96,-9.58 1.31,-3.11 3.76,-6.75 7.37,-10.93 3.6,-4.17 8.35,-8.75 14.24,-13.75 5.9,-5 15.14,-12.4 27.75,-22.22 l 17.68,-14 c 5.24,-4.26 10.89,-9.42 16.95,-15.47 6.05,-6.06 11.29,-12.03 15.71,-17.93 4.42,-5.89 7.82,-11.29 10.2,-16.2 2.37,-4.92 4.13,-9.87 5.28,-14.86 1.14,-5 1.71,-10.36 1.71,-16.09 0,-14.73 -3.52,-28.77 -10.56,-42.11 -7.04,-13.35 -17.02,-24.31 -29.96,-32.91 -12.93,-8.6 -27.13,-14.61 -42.61,-18.05 -15.46,-3.44 -31.79,-5.15 -48.99,-5.15 -26.52,0 -60,3.84 -100.43,11.54" /><path
         id="path184"
         style="fill:#51abe4;fill-opacity:1;fill-rule:nonzero;stroke:none"
         d="m 9311.23,1244.03 9.5,134.08 4.39,97.74 1.21,43.47 c 0.33,12.6 0.5,24.71 0.5,36.34 l -0.26,23.57 c 25.73,-0.32 44.99,-0.49 57.78,-0.49 10,0 27.37,0.17 52.11,0.49 -3.88,-46.99 -6.38,-88.49 -7.51,-124.5 h 133.66 c 0.81,13.45 1.59,31.62 2.32,54.5 0.73,22.89 1.1,38.51 1.1,46.88 0,4.42 -0.17,12.13 -0.49,23.12 l 58.12,-0.49 c 6.05,0 23.22,0.17 51.5,0.49 -5.85,-84.15 -9.58,-146.73 -11.2,-187.74 -1.63,-41 -2.45,-90.16 -2.45,-147.46 l -53.59,0.49 c -8.02,0 -27.2,-0.16 -57.51,-0.49 4.1,38.96 6.88,84.31 8.35,136.04 h -133.77 l -4.13,-136.04 -57.03,0.49 c -7.21,0 -24.74,-0.16 -52.6,-0.49" /><path
         id="path186"
         style="fill:#204560;fill-opacity:1;fill-rule:nonzero;stroke:none"
         d="m 6971.17,1151.39 h 56.18 l 32.74,-84.59 35.03,84.59 h 49.8 l -64.44,-133.97 v -98.088 h -51 v 98.088 l -58.31,133.97" /><path
         id="path188"
         style="fill:#204560;fill-opacity:1;fill-rule:nonzero;stroke:none"
         d="m 7259.68,1035.45 c 0,31.28 -2.44,52.1 -7.32,62.47 -4.87,10.38 -12.63,15.56 -23.29,15.56 -10.53,0 -18.25,-5.21 -23.12,-15.64 -4.87,-10.43 -7.31,-31.23 -7.31,-62.39 0,-30.61 2.41,-51.29 7.23,-62.059 4.82,-10.762 12.55,-16.149 23.2,-16.149 10.55,0 18.28,5.16 23.21,15.469 4.93,10.309 7.4,31.229 7.4,62.739 z m 53.72,0 c 0,-79.798 -28.05,-119.688 -84.16,-119.688 -27.88,0 -48.9,10.168 -63.07,30.519 -14.16,20.34 -21.25,50.059 -21.25,89.169 0,79.67 28.05,119.51 84.15,119.51 27.43,0 48.34,-9.97 62.74,-29.92 14.39,-19.95 21.59,-49.81 21.59,-89.59" /><path
         id="path190"
         style="fill:#204560;fill-opacity:1;fill-rule:nonzero;stroke:none"
         d="m 7348.93,1151.39 h 51 v -132.61 c 0,-18.7 0.85,-31.729 2.55,-39.1 1.7,-7.36 5.24,-12.95 10.63,-16.75 5.38,-3.789 11.99,-5.688 19.8,-5.688 8.51,0 15.25,2.098 20.24,6.289 4.98,4.188 8.04,9.75 9.17,16.66 1.14,6.911 1.71,19.778 1.71,38.589 v 132.61 h 42.67 v -130.57 c 0,-26.058 -1.51,-45.5 -4.51,-58.308 -3,-12.813 -10.65,-23.801 -22.95,-32.981 -12.3,-9.179 -29.21,-13.769 -50.75,-13.769 -20.17,0 -36.04,3.367 -47.6,10.117 -11.56,6.742 -19.78,16.203 -24.65,28.391 -4.87,12.179 -7.31,33.679 -7.31,64.51 v 132.61" /><path
         id="path192"
         style="fill:#204560;fill-opacity:1;fill-rule:nonzero;stroke:none"
         d="m 7601.57,1113.82 v -65.11 h 22.44 c 19.95,0 29.92,11.16 29.92,33.49 0,7.7 -1.48,14.02 -4.42,18.95 -2.95,4.93 -6.38,8.27 -10.29,10.04 -3.91,1.75 -9.66,2.63 -17.25,2.63 z m -51.01,37.57 h 72.93 c 14.17,0 25.02,-0.65 32.56,-1.95 7.54,-1.31 15.16,-4.82 22.87,-10.54 7.71,-5.73 13.74,-13.55 18.11,-23.47 4.36,-9.91 6.54,-21.05 6.54,-33.4 0,-29.02 -10.88,-49.42 -32.64,-61.21 l 42.67,-101.488 h -55.51 l -31.04,91.798 h -25.48 v -91.798 h -51.01 v 232.058" /><path
         id="path194"
         style="fill:#204560;fill-opacity:1;fill-rule:nonzero;stroke:none"
         d="m 7947.2,1100.9 -42.16,-16.15 c -6.02,19.15 -17,28.73 -32.99,28.73 -7.48,0 -13.4,-2.13 -17.77,-6.38 -4.36,-4.25 -6.54,-9.21 -6.54,-14.87 0,-6.58 2.58,-11.82 7.74,-15.73 5.15,-3.9 15.95,-9.04 32.38,-15.38 14.96,-5.56 26.72,-11.05 35.28,-16.49 8.56,-5.44 15.47,-12.84 20.74,-22.19 5.27,-9.35 7.91,-20.21 7.91,-32.549 0,-21.661 -7.45,-39.422 -22.36,-53.301 -14.91,-13.891 -34.88,-20.828 -59.93,-20.828 -42.05,0 -68.91,21.25 -80.58,63.75 l 44.54,12.75 c 5.44,-23.34 17.85,-35.02 37.23,-35.02 8.84,0 16.01,2.289 21.51,6.879 5.5,4.598 8.24,10.629 8.24,18.109 0,5.668 -1.92,10.739 -5.78,15.219 -3.85,4.471 -12.69,9.211 -26.52,14.191 -17.8,6.35 -31.05,12.1 -39.78,17.26 -8.73,5.15 -15.93,12.52 -21.59,22.1 -5.67,9.58 -8.5,20.49 -8.5,32.73 0,20.85 6.71,37.94 20.14,51.26 13.43,13.31 31.2,19.97 53.3,19.97 40.35,0 65.51,-18.02 75.49,-54.06" /><path
         id="path196"
         style="fill:#204560;fill-opacity:1;fill-rule:nonzero;stroke:none"
         d="m 7983.24,1151.39 h 51 V 962.852 h 74.81 v -43.52 h -125.81 v 232.058" /><path
         id="path198"
         style="fill:#204560;fill-opacity:1;fill-rule:nonzero;stroke:none"
         d="m 8238.93,1035.45 c 0,31.28 -2.44,52.1 -7.31,62.47 -4.87,10.38 -12.64,15.56 -23.29,15.56 -10.54,0 -18.25,-5.21 -23.12,-15.64 -4.88,-10.43 -7.31,-31.23 -7.31,-62.39 0,-30.61 2.4,-51.29 7.22,-62.059 4.82,-10.762 12.56,-16.149 23.21,-16.149 10.54,0 18.28,5.16 23.2,15.469 4.94,10.309 7.4,31.229 7.4,62.739 z m 53.72,0 c 0,-79.798 -28.04,-119.688 -84.15,-119.688 -27.88,0 -48.91,10.168 -63.08,30.519 -14.16,20.34 -21.24,50.059 -21.24,89.169 0,79.67 28.05,119.51 84.15,119.51 27.43,0 48.34,-9.97 62.73,-29.92 14.4,-19.95 21.59,-49.81 21.59,-89.59" /><path
         id="path200"
         style="fill:#204560;fill-opacity:1;fill-rule:nonzero;stroke:none"
         d="m 8409.62,1043.09 h 80.58 V 919.332 h -21.59 l -6.63,26.52 c -12.47,-20.063 -31.17,-30.09 -56.1,-30.09 -26.41,0 -47.35,10.398 -62.82,31.187 -15.47,20.801 -23.21,48.774 -23.21,83.911 0,38.19 7.62,68.42 22.87,90.69 15.24,22.28 37.77,33.41 67.58,33.41 47.49,0 74.13,-26.52 79.9,-79.56 l -45.9,-7.48 c -3.17,30.37 -14.17,45.56 -32.98,45.56 -11.45,0 -20.6,-5.61 -27.45,-16.83 -6.87,-11.22 -10.29,-32.47 -10.29,-63.75 0,-27.78 3.34,-47.33 10.03,-58.658 6.68,-11.344 16.49,-17 29.41,-17 20.74,0 31.16,15.36 31.28,46.078 h -34.68 v 39.77" /><path
         id="path202"
         style="fill:#204560;fill-opacity:1;fill-rule:nonzero;stroke:none"
         d="m 8623.26,1007.05 -23.45,95.08 -22.5,-95.08 z m -44.31,144.34 h 51.34 l 66.31,-232.058 h -52.16 l -11.58,47.938 h -65.37 l -11.38,-47.938 h -46.86 l 69.7,232.058" /><path
         id="path204"
         style="fill:#204560;fill-opacity:1;fill-rule:nonzero;stroke:none"
         d="m 8714.11,1151.39 h 56.61 l 59.67,-144.17 v 144.17 h 39.44 V 919.332 h -45.56 L 8753.55,1087.3 V 919.332 h -39.44 v 232.058" /><path
         id="path206"
         style="fill:#204560;fill-opacity:1;fill-rule:nonzero;stroke:none"
         d="m 8976.6,1151.39 h 51 v -93.67 h 55.77 v 93.67 h 51 V 919.332 h -51 v 94.858 h -55.77 v -94.858 h -51 v 232.058" /><path
         id="path208"
         style="fill:#204560;fill-opacity:1;fill-rule:nonzero;stroke:none"
         d="m 9178.23,1151.39 h 141.11 v -39.78 h -90.11 v -53.89 h 70.04 v -39.79 h -70.04 v -57.121 h 90.11 v -41.477 h -141.11 v 232.058" /><path
         id="path210"
         style="fill:#204560;fill-opacity:1;fill-rule:nonzero;stroke:none"
         d="m 9395.33,1113.82 v -65.11 h 22.45 c 19.95,0 29.91,11.16 29.91,33.49 0,7.7 -1.47,14.02 -4.41,18.95 -2.95,4.93 -6.38,8.27 -10.29,10.04 -3.91,1.75 -9.66,2.63 -17.26,2.63 z m -51,37.57 h 72.93 c 14.17,0 25.03,-0.65 32.57,-1.95 7.53,-1.31 15.16,-4.82 22.85,-10.54 7.71,-5.73 13.75,-13.55 18.12,-23.47 4.35,-9.91 6.54,-21.05 6.54,-33.4 0,-29.02 -10.88,-49.42 -32.64,-61.21 l 42.67,-101.488 h -55.51 l -31.04,91.798 h -25.49 v -91.798 h -51 v 232.058" /><path
         id="path212"
         style="fill:#204560;fill-opacity:1;fill-rule:nonzero;stroke:none"
         d="m 9534.06,1151.39 h 141.1 v -39.78 h -90.11 v -53.89 h 70.05 v -39.79 h -70.05 v -57.121 h 90.11 v -41.477 h -141.1 v 232.058" /><path
         id="path214"
         style="fill:#51abe4;fill-opacity:1;fill-rule:nonzero;stroke:none"
         d="M 9789.43,1630.98 H 6856.9 v 108.92 h 2932.53 v -108.92" /><path
         id="path216"
         style="fill:#51abe4;fill-opacity:1;fill-rule:nonzero;stroke:none"
         d="M 9789.43,738.652 H 6856.9 v 108.93 h 2932.53 v -108.93" /><path
         id="path218"
         style="fill:#ecec07;fill-opacity:1;fill-rule:nonzero;stroke:none"
         d="m 9149.23,2502.68 h -290.38 c -34.2,0 -45.8,45.54 -15.81,61.95 72.38,39.59 163.49,95.52 236.3,159.93 144.21,127.58 244.06,-27.74 244.06,-27.74 0.46,-3.85 0.81,-7.64 1.07,-11.36 6.78,-99.53 -75.47,-182.78 -175.24,-182.78 z m -473.41,2.1 c -51.84,-61.57 -128.82,-96.39 -209.3,-96.39 h -143.35 -143.35 c -80.49,0 -157.47,34.82 -209.31,96.39 -33.85,40.19 -43.27,70.01 -43.27,70.01 h 395.93 395.92 c 0,0 -9.42,-29.82 -43.27,-70.01 z m -888.33,-2.1 H 7497.1 c -99.76,0 -182.02,83.25 -175.23,182.78 0.25,3.72 0.6,7.51 1.07,11.36 0,0 99.84,155.32 244.06,27.74 72.81,-64.41 163.91,-120.34 236.29,-159.93 30,-16.41 18.39,-61.95 -15.8,-61.95 z m -2.52,803.05 c 17.17,18.73 39.73,31.57 64.65,36.56 190.09,38.1 473.55,40.24 473.55,40.24 0,0 283.46,-2.14 473.55,-40.24 24.91,-4.99 47.47,-17.83 64.64,-36.56 44.79,-48.86 89.88,-159.13 176.75,-322.26 h -714.94 -714.95 c 86.87,163.13 131.96,273.4 176.75,322.26 z m 1564.38,-457.58 c -12.08,13.23 -26.5,24.12 -42.3,32.58 l -151.44,81.02 c 10.72,18.27 20.73,32.33 24.46,28.6 0.09,-0.09 0.18,-0.18 0.28,-0.28 28.66,-28.47 70.88,-39.36 109.61,-27.89 57.28,16.96 113.23,61.98 79.67,107.74 -26.18,35.7 -76.56,35.1 -119.76,25.88 -44.49,-9.49 -83.87,-35.14 -111.42,-71.34 l -26.56,-34.91 c -18.79,35.95 -74.33,226.09 -221.02,376.82 -16.65,17.1 -37.99,28.94 -61.35,33.81 -54.18,11.28 -221.83,46.74 -506.35,46.74 -284.52,0 -452.17,-35.46 -506.35,-46.74 -23.37,-4.87 -44.71,-16.71 -61.36,-33.81 -146.69,-150.73 -202.23,-340.87 -221.01,-376.82 l -26.57,34.91 c -27.54,36.2 -66.93,61.85 -111.42,71.34 -43.2,9.22 -93.58,9.82 -119.76,-25.88 -33.56,-45.76 22.39,-90.78 79.67,-107.74 38.74,-11.47 80.95,-0.58 109.61,27.89 0.1,0.1 0.19,0.19 0.29,0.28 3.72,3.73 13.74,-10.33 24.45,-28.6 l -151.44,-81.02 c -15.79,-8.46 -30.22,-19.35 -42.29,-32.58 -71.39,-78.28 -111.33,-180.68 -111.33,-287.32 v -276.56 h 1137.51 1137.51 v 276.56 c 0,106.64 -39.95,209.04 -111.33,287.32" /><path
         id="path220"
         style="fill:#ffffff;fill-opacity:1;fill-rule:nonzero;stroke:none"
         d="m 9642.45,2007.45 v 87.19 c 0,48.55 -18.95,92.58 -49.67,125.46 6.94,18.21 10.91,37.89 10.91,58.54 0,90.91 -73.71,164.61 -164.62,164.61 -24.48,0 -47.63,-5.48 -68.51,-15.07 -52.76,130.39 -180.49,222.41 -329.8,222.41 -150.13,0 -278.45,-93.05 -330.66,-224.59 -30.02,28.46 -69.74,46.63 -113.73,49.18 0,0.18 0.03,0.36 0.03,0.54 0,105.73 -85.72,191.44 -191.45,191.44 -101.18,0 -183.81,-78.54 -190.76,-177.95 -41.27,46.26 -101.3,75.42 -168.17,75.42 -124.44,0 -225.31,-100.87 -225.31,-225.3 0,-0.96 0.06,-1.9 0.07,-2.86 -9.37,1.84 -19.03,2.86 -28.94,2.86 -32.05,0 -61.69,-10.17 -86.04,-27.34 -1.56,106.4 -88.17,192.2 -194.94,192.2 -67.21,0 -126.46,-34 -161.54,-85.72 -25.17,15.61 -54.76,24.78 -86.56,24.78 -90.91,0 -164.61,-73.7 -164.61,-164.61 0,-30.79 8.6,-59.5 23.32,-84.15 C 7051,2178.3 6998.4,2115.34 6998.4,2039.96 v -32.78 c -50.64,-2.86 -90.85,-44.71 -90.85,-96.07 0,-51.35 40.21,-93.2 90.85,-96.06 v -0.27 h 2644.05 c 53.2,0 96.34,43.13 96.34,96.33 0,53.21 -43.14,96.34 -96.34,96.34" /><path
         id="path222"
         style="fill:#51abe4;fill-opacity:1;fill-rule:nonzero;stroke:none"
         d="m 7004,1840.02 h 2638.45 c 39.2,0 71.1,31.89 71.1,71.09 0,39.21 -31.9,71.1 -71.1,71.1 h -25.24 v 112.43 c 0,40.2 -15.23,78.64 -42.88,108.23 l -10.75,11.5 5.61,14.72 c 6.14,16.11 9.26,32.78 9.26,49.55 0,76.85 -62.53,139.37 -139.38,139.37 -20.01,0 -39.52,-4.29 -57.97,-12.77 l -24.02,-11.02 -9.91,24.49 c -50.8,125.53 -171.07,206.64 -306.41,206.64 -136.3,0 -256.88,-81.9 -307.2,-208.66 l -13.76,-34.67 -27.07,25.66 c -26.53,25.17 -61.27,40.19 -97.82,42.31 l -24.39,1.41 0.64,25.12 c -0.44,91.28 -74.83,165.4 -166.21,165.4 -86.8,0 -159.53,-67.85 -165.58,-154.47 l -4.18,-59.72 -39.84,44.68 c -37.97,42.57 -92.4,66.98 -149.33,66.98 -110.32,0 -200.07,-89.74 -200.07,-200.06 l 0.4,-33.58 -30.42,5.95 c -34.35,6.73 -68.01,-0.89 -95.59,-20.34 l -39.08,-27.56 -0.7,47.82 c -1.35,92.26 -77.48,167.32 -169.7,167.32 -56.37,0 -108.95,-27.9 -140.66,-74.64 l -13.6,-20.05 -20.59,12.77 c -22.13,13.74 -47.46,20.99 -73.25,20.99 -76.85,0 -139.37,-62.52 -139.37,-139.37 0,-24.94 6.82,-49.57 19.75,-71.21 l 17.77,-29.78 -33.8,-7.76 c -60.92,-14 -103.47,-67.42 -103.47,-129.93 v -56.64 l -23.81,-1.34 c -37.6,-2.12 -67.04,-33.25 -67.04,-70.87 0,-37.61 29.44,-68.74 67.04,-70.86 z m 2638.45,-50.48 H 6973.16 v 4.03 c -52.5,13.66 -90.85,61.38 -90.85,117.54 0,56.18 38.35,103.89 90.85,117.55 v 11.3 c 0,75.58 45.11,141.53 112.87,169.62 -8.64,21.98 -13.12,45.4 -13.12,69.06 0,104.69 85.16,189.85 189.85,189.85 27.5,0 54.59,-6.02 79.49,-17.58 41.67,49.53 103.17,78.52 168.61,78.52 106.11,0 195.81,-76.6 215.97,-177.42 22.01,8.88 45.63,13.15 69.9,12.49 12.65,126.38 119.63,225.38 249.29,225.38 55.17,0 108.46,-18.3 151.77,-51.28 27.16,89.24 110.47,153.81 207.16,153.81 112.03,0 204.48,-85.47 215.57,-194.62 28.58,-4.88 55.82,-15.75 79.84,-31.82 64.33,128.53 194.56,209.86 340.4,209.86 147.73,0 279.88,-83.83 343.21,-215.57 17.86,5.47 36.3,8.23 55.1,8.23 104.69,0 189.86,-85.16 189.86,-189.85 0,-17.86 -2.57,-35.59 -7.64,-52.89 30.03,-37.18 46.4,-83.18 46.4,-131.11 v -64.58 c 54.97,-11.65 96.34,-60.56 96.34,-118.95 0,-67.04 -54.54,-121.57 -121.58,-121.57" /></g></g></svg>